<svg xmlns="http://www.w3.org/2000/svg" xmlns:xlink="http://www.w3.org/1999/xlink" width="1920" zoomAndPan="magnify" viewBox="0 0 1440 1439.999935" height="1920" preserveAspectRatio="xMidYMid meet" version="1.2"><defs><clipPath id="d57183c165"><path d="M 728.902344 145.5 L 931.652344 145.5 L 931.652344 348.25 L 728.902344 348.25 Z M 728.902344 145.5 "/></clipPath><clipPath id="78d07b8696"><path d="M 830.277344 145.5 C 774.289062 145.5 728.902344 190.886719 728.902344 246.875 C 728.902344 302.863281 774.289062 348.25 830.277344 348.25 C 886.261719 348.25 931.652344 302.863281 931.652344 246.875 C 931.652344 190.886719 886.261719 145.5 830.277344 145.5 Z M 830.277344 145.5 "/></clipPath><clipPath id="ca1756587e"><path d="M 678 18 L 999 18 L 999 375 L 678 375 Z M 678 18 "/></clipPath><clipPath id="f328c30ae5"><path d="M 546.839844 112.472656 L 853.203125 -65.933594 L 1015.125 212.128906 L 708.765625 390.535156 Z M 546.839844 112.472656 "/></clipPath><clipPath id="fa59b9e437"><path d="M 743.1875 24.058594 L 976.742188 159.128906 C 990.171875 166.894531 998.453125 181.222656 998.476562 196.738281 C 998.5 212.253906 990.261719 226.609375 976.855469 234.417969 L 746.507812 368.554688 C 733.101562 376.363281 716.550781 376.441406 703.070312 368.765625 C 689.585938 361.085938 681.210938 346.8125 681.082031 331.300781 L 678.875 61.507812 C 678.75 46.128906 686.875 31.863281 700.164062 24.125 C 713.457031 16.382812 729.875 16.359375 743.1875 24.058594 Z M 743.1875 24.058594 "/></clipPath><clipPath id="381c7fb6c1"><path d="M 878 368 L 901 368 L 901 431 L 878 431 Z M 878 368 "/></clipPath><clipPath id="fb05f728c9"><path d="M 1022.792969 364.738281 L 822.683594 470.84375 L 777.007812 384.707031 L 977.117188 278.597656 Z M 1022.792969 364.738281 "/></clipPath><clipPath id="555661b332"><path d="M 1022.792969 364.738281 L 822.683594 470.84375 L 777.007812 384.707031 L 977.117188 278.597656 Z M 1022.792969 364.738281 "/></clipPath><clipPath id="e156528dce"><path d="M 927 326 L 982 326 L 982 358 L 927 358 Z M 927 326 "/></clipPath><clipPath id="675668c1cb"><path d="M 1022.792969 364.738281 L 822.683594 470.84375 L 777.007812 384.707031 L 977.117188 278.597656 Z M 1022.792969 364.738281 "/></clipPath><clipPath id="4804f1e4c2"><path d="M 1022.792969 364.738281 L 822.683594 470.84375 L 777.007812 384.707031 L 977.117188 278.597656 Z M 1022.792969 364.738281 "/></clipPath><clipPath id="c5a539176f"><path d="M 906 352 L 951 352 L 951 402 L 906 402 Z M 906 352 "/></clipPath><clipPath id="86ee40378a"><path d="M 1022.792969 364.738281 L 822.683594 470.84375 L 777.007812 384.707031 L 977.117188 278.597656 Z M 1022.792969 364.738281 "/></clipPath><clipPath id="fb1b16bf1c"><path d="M 1022.792969 364.738281 L 822.683594 470.84375 L 777.007812 384.707031 L 977.117188 278.597656 Z M 1022.792969 364.738281 "/></clipPath><clipPath id="e1131fd239"><path d="M 838 369 L 852 369 L 852 424 L 838 424 Z M 838 369 "/></clipPath><clipPath id="d36ec4c623"><path d="M 1022.792969 364.738281 L 822.683594 470.84375 L 777.007812 384.707031 L 977.117188 278.597656 Z M 1022.792969 364.738281 "/></clipPath><clipPath id="dff6141d8a"><path d="M 1022.792969 364.738281 L 822.683594 470.84375 L 777.007812 384.707031 L 977.117188 278.597656 Z M 1022.792969 364.738281 "/></clipPath><clipPath id="84b94a6999"><path d="M 934 295 L 989 295 L 989 308 L 934 308 Z M 934 295 "/></clipPath><clipPath id="b579738a46"><path d="M 1022.792969 364.738281 L 822.683594 470.84375 L 777.007812 384.707031 L 977.117188 278.597656 Z M 1022.792969 364.738281 "/></clipPath><clipPath id="b47ed477fb"><path d="M 1022.792969 364.738281 L 822.683594 470.84375 L 777.007812 384.707031 L 977.117188 278.597656 Z M 1022.792969 364.738281 "/></clipPath><clipPath id="98894a89b1"><path d="M 788 362 L 821 362 L 821 408 L 788 408 Z M 788 362 "/></clipPath><clipPath id="0022f176d0"><path d="M 1022.792969 364.738281 L 822.683594 470.84375 L 777.007812 384.707031 L 977.117188 278.597656 Z M 1022.792969 364.738281 "/></clipPath><clipPath id="86f97589fa"><path d="M 1022.792969 364.738281 L 822.683594 470.84375 L 777.007812 384.707031 L 977.117188 278.597656 Z M 1022.792969 364.738281 "/></clipPath></defs><g id="7432a6bc57"><g clip-rule="nonzero" clip-path="url(#d57183c165)"><g clip-rule="nonzero" clip-path="url(#78d07b8696)"><path style=" stroke:none;fill-rule:nonzero;fill:#38b6ff;fill-opacity:1;" d="M 728.902344 145.5 L 931.652344 145.5 L 931.652344 348.25 L 728.902344 348.25 Z M 728.902344 145.5 "/></g></g><path style="fill:none;stroke-width:100;stroke-linecap:round;stroke-linejoin:miter;stroke:#004aad;stroke-opacity:1;stroke-miterlimit:4;" d="M 1582.761729 1482.469552 L 73.99773 1482.469552 C 60.74381 1482.469552 50.001048 1471.721581 50.001048 1458.467661 L 50.001048 74.000846 C 50.001048 60.746925 60.74381 49.998954 73.99773 49.998954 L 810.632292 49.998954 " transform="matrix(0.749778,0,0,0.749778,90.178275,146.648595)"/><g clip-rule="nonzero" clip-path="url(#ca1756587e)"><g clip-rule="nonzero" clip-path="url(#f328c30ae5)"><g clip-rule="nonzero" clip-path="url(#fa59b9e437)"><path style=" stroke:none;fill-rule:nonzero;fill:#004aad;fill-opacity:1;" d="M 498.277344 91.324219 L 858.773438 -118.605469 L 1042.195312 196.367188 L 681.699219 406.296875 Z M 498.277344 91.324219 "/></g></g></g><g style="fill:#004aad;fill-opacity:1;"><g transform="translate(259.03374, 721.903237)"><path style="stroke:none" d="M 107.546875 4.953125 C 78.742188 4.953125 57.519531 -2.769531 43.875 -18.21875 C 30.226562 -33.675781 23.40625 -57.003906 23.40625 -88.203125 L 23.40625 -280.796875 C 23.40625 -293.992188 26.851562 -304.039062 33.75 -310.9375 C 40.644531 -317.84375 50.394531 -321.296875 63 -321.296875 C 75.894531 -321.296875 85.867188 -317.84375 92.921875 -310.9375 C 99.972656 -304.039062 103.5 -293.992188 103.5 -280.796875 L 103.5 -90.90625 C 103.5 -79.800781 105.671875 -71.695312 110.015625 -66.59375 C 114.367188 -61.5 120 -58.953125 126.90625 -58.953125 C 129 -58.953125 131.171875 -59.175781 133.421875 -59.625 C 135.671875 -60.070312 138.144531 -60.445312 140.84375 -60.75 C 145.945312 -60.75 149.773438 -58.796875 152.328125 -54.890625 C 154.878906 -50.992188 156.15625 -43.046875 156.15625 -31.046875 C 156.15625 -20.546875 154.050781 -12.671875 149.84375 -7.421875 C 145.644531 -2.171875 139.195312 1.203125 130.5 2.703125 C 128.101562 3.003906 124.65625 3.453125 120.15625 4.046875 C 115.65625 4.648438 111.453125 4.953125 107.546875 4.953125 Z M 107.546875 4.953125 "/></g></g><g style="fill:#004aad;fill-opacity:1;"><g transform="translate(415.633434, 721.903237)"><path style="stroke:none" d="M 106.203125 4.953125 C 87.003906 4.953125 71.253906 1.425781 58.953125 -5.625 C 46.648438 -12.675781 37.421875 -23.25 31.265625 -37.34375 C 25.117188 -51.445312 22.046875 -69.300781 22.046875 -90.90625 L 22.046875 -185.40625 C 22.046875 -198.601562 25.492188 -208.578125 32.390625 -215.328125 C 39.296875 -222.078125 49.195312 -225.453125 62.09375 -225.453125 C 75 -225.453125 84.898438 -222.078125 91.796875 -215.328125 C 98.703125 -208.578125 102.15625 -198.601562 102.15625 -185.40625 L 102.15625 -88.65625 C 102.15625 -77.851562 104.40625 -69.75 108.90625 -64.34375 C 113.40625 -58.945312 120.453125 -56.25 130.046875 -56.25 C 140.847656 -56.25 149.695312 -60.148438 156.59375 -67.953125 C 163.5 -75.753906 166.953125 -86.101562 166.953125 -99 L 166.953125 -185.40625 C 166.953125 -198.601562 170.398438 -208.578125 177.296875 -215.328125 C 184.203125 -222.078125 194.101562 -225.453125 207 -225.453125 C 219.894531 -225.453125 229.789062 -222.078125 236.6875 -215.328125 C 243.59375 -208.578125 247.046875 -198.601562 247.046875 -185.40625 L 247.046875 -36.453125 C 247.046875 -9.453125 234.144531 4.046875 208.34375 4.046875 C 195.75 4.046875 186 0.597656 179.09375 -6.296875 C 172.195312 -13.203125 168.75 -23.253906 168.75 -36.453125 L 168.75 -62.546875 L 175.953125 -40.5 C 169.347656 -25.800781 160.117188 -14.550781 148.265625 -6.75 C 136.421875 1.050781 122.398438 4.953125 106.203125 4.953125 Z M 106.203125 4.953125 "/></g></g><g style="fill:#38b6ff;fill-opacity:1;"><g transform="translate(686.088391, 721.903237)"><path style="stroke:none" d="M 63.90625 4.046875 C 51.300781 4.046875 41.546875 0.597656 34.640625 -6.296875 C 27.742188 -13.203125 24.296875 -23.253906 24.296875 -36.453125 L 24.296875 -185.40625 C 24.296875 -198.300781 27.671875 -208.195312 34.421875 -215.09375 C 41.171875 -222 50.847656 -225.453125 63.453125 -225.453125 C 76.046875 -225.453125 85.644531 -222 92.25 -215.09375 C 98.851562 -208.195312 102.15625 -198.300781 102.15625 -185.40625 L 102.15625 -160.65625 L 97.203125 -182.703125 C 103.503906 -195.898438 112.878906 -206.472656 125.328125 -214.421875 C 137.773438 -222.367188 152.550781 -226.34375 169.65625 -226.34375 C 185.851562 -226.34375 199.722656 -222.441406 211.265625 -214.640625 C 222.816406 -206.847656 231.144531 -195 236.25 -179.09375 L 229.953125 -179.09375 C 236.847656 -193.800781 247.195312 -205.351562 261 -213.75 C 274.800781 -222.144531 290.101562 -226.34375 306.90625 -226.34375 C 324.300781 -226.34375 338.546875 -222.96875 349.640625 -216.21875 C 360.742188 -209.46875 369.070312 -198.96875 374.625 -184.71875 C 380.175781 -170.46875 382.953125 -152.546875 382.953125 -130.953125 L 382.953125 -36.453125 C 382.953125 -23.253906 379.425781 -13.203125 372.375 -6.296875 C 365.320312 0.597656 355.347656 4.046875 342.453125 4.046875 C 329.847656 4.046875 320.09375 0.597656 313.1875 -6.296875 C 306.289062 -13.203125 302.84375 -23.253906 302.84375 -36.453125 L 302.84375 -128.703125 C 302.84375 -141.597656 300.894531 -150.894531 297 -156.59375 C 293.101562 -162.300781 286.65625 -165.15625 277.65625 -165.15625 C 266.550781 -165.15625 258.070312 -161.253906 252.21875 -153.453125 C 246.375 -145.648438 243.453125 -134.550781 243.453125 -120.15625 L 243.453125 -36.453125 C 243.453125 -23.253906 240 -13.203125 233.09375 -6.296875 C 226.195312 0.597656 216.300781 4.046875 203.40625 4.046875 C 190.5 4.046875 180.59375 0.597656 173.6875 -6.296875 C 166.789062 -13.203125 163.34375 -23.253906 163.34375 -36.453125 L 163.34375 -128.703125 C 163.34375 -141.597656 161.394531 -150.894531 157.5 -156.59375 C 153.601562 -162.300781 147.15625 -165.15625 138.15625 -165.15625 C 127.351562 -165.15625 119.023438 -161.253906 113.171875 -153.453125 C 107.328125 -145.648438 104.40625 -134.550781 104.40625 -120.15625 L 104.40625 -36.453125 C 104.40625 -9.453125 90.90625 4.046875 63.90625 4.046875 Z M 63.90625 4.046875 "/></g></g><g style="fill:#38b6ff;fill-opacity:1;"><g transform="translate(1091.98768, 721.903237)"><path style="stroke:none" d="M 63 4.046875 C 50.394531 4.046875 40.644531 0.296875 33.75 -7.203125 C 26.851562 -14.703125 23.40625 -25.5 23.40625 -39.59375 L 23.40625 -181.796875 C 23.40625 -195.898438 26.851562 -206.703125 33.75 -214.203125 C 40.644531 -221.703125 50.394531 -225.453125 63 -225.453125 C 75.894531 -225.453125 85.867188 -221.703125 92.921875 -214.203125 C 99.972656 -206.703125 103.5 -195.898438 103.5 -181.796875 L 103.5 -39.59375 C 103.5 -25.5 100.046875 -14.703125 93.140625 -7.203125 C 86.242188 0.296875 76.195312 4.046875 63 4.046875 Z M 63 -257.40625 C 48.894531 -257.40625 38.019531 -260.703125 30.375 -267.296875 C 22.726562 -273.898438 18.90625 -283.5 18.90625 -296.09375 C 18.90625 -308.394531 22.726562 -317.84375 30.375 -324.4375 C 38.019531 -331.039062 48.894531 -334.34375 63 -334.34375 C 77.695312 -334.34375 88.796875 -331.039062 96.296875 -324.4375 C 103.796875 -317.84375 107.546875 -308.394531 107.546875 -296.09375 C 107.546875 -283.5 103.796875 -273.898438 96.296875 -267.296875 C 88.796875 -260.703125 77.695312 -257.40625 63 -257.40625 Z M 63 -257.40625 "/></g></g><g clip-rule="nonzero" clip-path="url(#381c7fb6c1)"><g clip-rule="nonzero" clip-path="url(#fb05f728c9)"><g clip-rule="nonzero" clip-path="url(#555661b332)"><path style=" stroke:none;fill-rule:nonzero;fill:#38b6ff;fill-opacity:1;" d="M 881.425781 395.066406 C 881.605469 394.816406 881.78125 394.566406 881.902344 394.503906 C 881.644531 394.019531 881.332031 393.71875 881.074219 393.234375 C 880.882812 392.871094 880.746094 392.324219 880.675781 391.898438 C 880.609375 391.777344 880.667969 391.589844 880.660156 391.285156 C 880.652344 390.976562 880.710938 390.792969 880.582031 390.550781 C 880.324219 390.066406 880.429688 389.390625 879.867188 388.910156 C 879.804688 388.789062 879.859375 388.605469 879.796875 388.484375 C 880.082031 387.558594 879.566406 386.589844 879.601562 385.484375 C 879.660156 385.300781 879.472656 385.242188 879.46875 384.9375 C 879.273438 384.574219 879.203125 384.144531 879.253906 383.652344 C 879.359375 382.976562 879.039062 382.371094 878.835938 381.703125 C 878.710938 381.460938 878.765625 381.273438 878.757812 380.96875 C 878.808594 380.476562 878.859375 379.984375 878.480469 379.566406 C 878.414062 379.445312 878.289062 379.203125 878.410156 379.136719 C 878.8125 378.148438 878.113281 377.121094 878.335938 376.074219 C 878.390625 375.886719 878.386719 375.582031 878.441406 375.398438 C 878.492188 374.90625 878.417969 374.476562 878.46875 373.984375 C 878.519531 373.496094 878.632812 373.125 878.683594 372.632812 C 878.894531 371.277344 879.109375 369.925781 879.386719 368.691406 C 879.441406 368.507812 879.5 368.320312 879.554688 368.136719 C 879.683594 368.378906 879.933594 368.554688 879.933594 368.554688 C 880.601562 368.355469 880.675781 368.785156 881.050781 369.203125 C 882.386719 371.132812 883.597656 373.128906 884.753906 375.308594 C 885.140625 376.035156 885.402344 376.824219 885.667969 377.613281 C 885.796875 377.855469 885.988281 378.21875 886.238281 378.398438 C 886.738281 378.753906 886.867188 378.996094 886.695312 379.550781 C 886.582031 379.921875 886.71875 380.472656 886.972656 380.957031 C 887.171875 381.625 887.375 382.296875 887.574219 382.964844 C 887.703125 383.207031 887.832031 383.449219 887.957031 383.691406 C 888.09375 384.238281 888.890625 384.28125 888.785156 384.957031 C 888.738281 385.449219 888.871094 386 888.824219 386.492188 C 888.765625 386.675781 888.894531 386.917969 888.835938 387.101562 C 889.457031 387.394531 889.59375 387.945312 889.730469 388.492188 C 889.863281 389.039062 890.179688 389.339844 890.070312 390.015625 C 889.964844 390.695312 890.230469 391.484375 890.855469 392.082031 C 891.234375 392.503906 891.425781 392.867188 891.441406 393.476562 C 891.527344 394.519531 891.734375 395.496094 891.941406 396.46875 C 891.949219 396.777344 892.078125 397.019531 892.207031 397.261719 C 892.277344 397.6875 892.414062 398.238281 892.484375 398.664062 C 892.621094 399.214844 892.757812 399.761719 892.957031 400.429688 C 892.964844 400.738281 893.15625 401.101562 893.164062 401.40625 C 893.300781 401.957031 893.25 402.445312 893.691406 402.988281 C 894.328125 403.894531 894.414062 404.933594 894.621094 405.910156 C 894.757812 406.457031 894.648438 407.132812 895.277344 407.734375 C 895.339844 407.855469 895.40625 407.976562 895.347656 408.160156 C 895.308594 408.957031 895.449219 409.8125 895.714844 410.605469 C 895.777344 410.722656 895.722656 410.910156 895.785156 411.03125 C 896.683594 412.726562 896.683594 412.726562 896.792969 414.683594 C 896.800781 414.992188 897.050781 415.167969 897.121094 415.597656 C 897.3125 415.960938 897.449219 416.507812 897.640625 416.871094 C 897.707031 416.992188 897.648438 417.179688 897.714844 417.300781 C 898.097656 418.027344 898.175781 418.761719 898.378906 419.429688 C 898.59375 420.710938 899.355469 421.859375 899.933594 422.949219 C 900.191406 423.433594 900.316406 423.675781 899.710938 423.996094 C 899.898438 424.050781 900.082031 424.109375 900.148438 424.230469 C 900.210938 424.351562 900.460938 424.53125 900.402344 424.714844 C 900.355469 425.207031 900.492188 425.753906 900.5625 426.183594 C 900.691406 426.425781 900.390625 426.738281 900.335938 426.921875 C 900.277344 427.109375 900.09375 427.050781 900.035156 427.238281 C 899.984375 427.730469 899.9375 428.21875 899.886719 428.710938 C 899.773438 429.082031 899.472656 429.394531 899.117188 429.894531 C 898.683594 429.660156 898.007812 429.554688 897.386719 429.261719 C 897.207031 429.511719 896.910156 429.824219 896.609375 430.140625 C 895.933594 430.03125 895.191406 429.804688 894.515625 429.699219 L 893.269531 428.808594 C 892.953125 428.511719 892.769531 428.453125 892.347656 428.832031 C 891.964844 428.105469 891.699219 427.3125 890.894531 426.964844 C 890.828125 426.84375 890.765625 426.722656 890.703125 426.601562 C 890.574219 426.359375 890.566406 426.054688 890.375 425.691406 C 890.117188 425.207031 889.921875 424.84375 889.972656 424.351562 C 890.03125 424.164062 890.023438 423.859375 889.652344 423.746094 C 889.097656 423.574219 889.144531 423.082031 889.195312 422.589844 C 889.292969 421.609375 888.84375 420.761719 888.152344 420.042969 C 888.089844 419.921875 887.839844 419.742188 887.710938 419.5 C 888.003906 418.878906 887.988281 418.269531 887.667969 417.664062 C 887.332031 416.445312 886.996094 415.226562 886.660156 414.007812 C 886.597656 413.886719 886.589844 413.582031 886.523438 413.460938 C 886.082031 412.917969 885.945312 412.371094 885.933594 411.757812 C 885.847656 410.71875 885.398438 409.871094 884.949219 409.023438 C 884.820312 408.78125 884.988281 408.222656 884.433594 408.054688 C 884.25 407.996094 884.113281 407.449219 884.167969 407.261719 C 884.582031 406.578125 884.011719 405.792969 883.996094 405.183594 C 884.054688 404.996094 883.863281 404.632812 883.742188 404.699219 C 882.933594 404.347656 883.285156 403.542969 882.960938 402.9375 C 882.835938 402.695312 883.320312 402.441406 883.125 402.078125 C 882.621094 401.414062 882.539062 400.679688 882.339844 400.011719 C 882.210938 399.769531 882.207031 399.460938 882.199219 399.15625 C 882.132812 399.035156 882.246094 398.664062 882.0625 398.605469 C 881.664062 397.269531 882.125 396.09375 881.425781 395.066406 Z M 881.425781 395.066406 "/></g></g></g><g clip-rule="nonzero" clip-path="url(#e156528dce)"><g clip-rule="nonzero" clip-path="url(#675668c1cb)"><g clip-rule="nonzero" clip-path="url(#4804f1e4c2)"><path style=" stroke:none;fill-rule:nonzero;fill:#38b6ff;fill-opacity:1;" d="M 963.894531 339.082031 C 963.78125 339.453125 963.789062 339.757812 963.609375 340.007812 C 964.222656 339.996094 964.714844 340.042969 965.207031 340.09375 C 965.335938 340.335938 965.339844 340.640625 965.46875 340.882812 C 966.089844 341.175781 966.875 340.605469 967.378906 341.269531 C 967.507812 341.511719 967.515625 341.816406 967.523438 342.121094 C 968.3125 341.859375 968.828125 342.828125 969.625 342.871094 C 970.542969 342.847656 970.871094 343.757812 971.675781 344.109375 C 971.917969 343.980469 972.226562 343.972656 972.652344 343.902344 C 972.667969 344.511719 973.039062 344.628906 973.59375 344.796875 C 974.03125 345.03125 974.34375 345.332031 974.65625 345.628906 C 975.132812 345.066406 975.460938 345.980469 975.945312 345.722656 C 975.832031 346.09375 975.777344 346.277344 975.78125 346.585938 C 976.589844 346.933594 977.515625 347.21875 978.382812 347.6875 C 979.191406 348.035156 979.132812 348.222656 979.027344 348.898438 C 979.40625 349.316406 979.71875 349.617188 980.03125 349.917969 C 980.097656 350.039062 980.28125 350.09375 980.464844 350.152344 C 981.273438 350.5 981.09375 350.75 981.414062 351.355469 C 981.734375 351.960938 981.371094 352.152344 981.324219 352.644531 C 981.144531 352.894531 981.03125 353.265625 981.101562 353.691406 C 981.109375 353.996094 980.8125 354.3125 980.699219 354.683594 C 980.582031 355.050781 980.40625 355.300781 980.171875 355.738281 C 979.929688 355.867188 979.378906 356 979.082031 356.316406 C 978.78125 356.628906 978.355469 356.699219 977.863281 356.652344 C 977.558594 356.65625 977.195312 356.851562 976.832031 357.042969 C 976.703125 356.800781 976.695312 356.496094 976.628906 356.375 C 975.894531 356.453125 975.148438 355.917969 974.292969 356.0625 C 973.679688 356.074219 973.300781 355.65625 973.417969 355.285156 C 973.109375 355.292969 972.925781 355.234375 972.617188 355.242188 C 972.433594 355.1875 972.367188 355.066406 972.367188 355.066406 C 971.828125 355.507812 971.386719 354.964844 971.191406 354.601562 C 970.75 354.0625 970.445312 354.070312 969.894531 354.203125 C 969.390625 353.542969 968.828125 353.066406 967.972656 353.207031 C 967.542969 353.28125 967.292969 353.101562 966.660156 352.199219 C 966.539062 352.261719 966.417969 352.324219 966.113281 352.332031 C 965.992188 352.398438 965.75 352.527344 965.75 352.527344 C 965.3125 352.292969 965 351.992188 964.75 351.8125 C 964.4375 351.515625 964.242188 351.152344 963.996094 350.972656 C 963.679688 350.675781 963.367188 350.375 962.820312 350.511719 C 961.480469 350.910156 961.230469 350.734375 960.644531 349.335938 C 960.402344 349.464844 960.160156 349.59375 959.855469 349.601562 C 959.667969 349.542969 959.417969 349.367188 959.113281 349.375 C 959.167969 349.1875 959.226562 349.003906 959.339844 348.632812 C 958.285156 348.105469 957.175781 347.765625 955.707031 347.921875 C 955.699219 347.617188 955.628906 347.1875 955.554688 346.761719 C 954.816406 346.535156 954.074219 346.304688 953.269531 345.957031 C 952.898438 345.84375 952.640625 345.359375 952.328125 345.0625 C 951.835938 345.011719 951.410156 345.082031 950.917969 345.035156 C 951.03125 344.664062 951.144531 344.292969 951.378906 343.859375 C 950.347656 344.25 949.847656 343.894531 949.339844 343.230469 C 949.277344 343.109375 949.148438 342.867188 949.027344 342.933594 C 947.921875 342.898438 947.101562 341.9375 946 341.902344 C 945.878906 341.964844 945.691406 341.910156 945.628906 341.789062 C 945.3125 341.488281 945.242188 341.0625 944.871094 340.949219 C 944.5 340.832031 944.074219 340.90625 943.882812 340.542969 C 943.753906 340.300781 943.6875 340.179688 943.558594 339.9375 C 942.390625 339.78125 942.390625 339.78125 942.25 338.925781 C 941.699219 339.0625 941.085938 339.078125 940.476562 339.089844 C 940.46875 338.785156 940.523438 338.597656 940.582031 338.414062 C 940.210938 338.300781 939.71875 338.25 939.40625 337.953125 C 938.90625 337.597656 938.285156 337.304688 937.910156 336.882812 C 936.902344 335.867188 935.664062 335.28125 934.308594 335.070312 C 934.367188 334.882812 934.300781 334.761719 934.292969 334.457031 C 932.570312 334.128906 931.4375 332.871094 929.945312 332.109375 C 929.945312 332.109375 930.003906 331.921875 930.003906 331.921875 C 930.308594 331.914062 930.558594 332.09375 930.867188 332.085938 C 930.539062 331.175781 929.367188 331.019531 928.917969 330.171875 C 928.535156 329.445312 927.84375 328.726562 927.152344 328.007812 C 927.578125 327.933594 928.007812 327.863281 928.433594 327.792969 C 928.183594 327.613281 928.121094 327.492188 927.804688 327.195312 C 928.71875 326.867188 929.445312 326.480469 930.300781 326.335938 C 931.273438 326.128906 932.378906 326.164062 933.296875 326.144531 C 933.417969 326.078125 933.546875 326.320312 933.613281 326.441406 C 933.796875 326.5 934.113281 326.796875 934.355469 326.667969 C 936 326.261719 937.3125 327.273438 938.730469 327.605469 C 939.589844 327.769531 940.21875 328.367188 941.074219 328.226562 C 941.316406 328.097656 941.691406 328.515625 941.820312 328.757812 C 942.078125 329.242188 942.511719 329.476562 943.003906 329.527344 C 943.496094 329.578125 944.109375 329.5625 944.542969 329.796875 C 945.65625 330.140625 946.589844 330.730469 947.765625 331.191406 C 947.902344 331.742188 948.515625 331.726562 948.828125 332.023438 C 949.511719 332.4375 950.316406 332.785156 951.058594 333.015625 C 951.570312 333.980469 952.667969 333.710938 953.539062 334.179688 C 954.039062 334.535156 954.59375 334.707031 955.214844 335 C 955.398438 335.054688 955.65625 335.539062 955.96875 335.839844 C 956.460938 335.886719 957.136719 335.996094 957.335938 336.664062 C 958.257812 336.644531 958.722656 338.101562 959.875 337.644531 C 960.558594 338.058594 961.476562 338.035156 962.113281 338.941406 C 962.296875 339 962.980469 339.410156 963.894531 339.082031 Z M 963.894531 339.082031 "/></g></g></g><g clip-rule="nonzero" clip-path="url(#c5a539176f)"><g clip-rule="nonzero" clip-path="url(#86ee40378a)"><g clip-rule="nonzero" clip-path="url(#fb1b16bf1c)"><path style=" stroke:none;fill-rule:nonzero;fill:#38b6ff;fill-opacity:1;" d="M 950.644531 397.765625 C 950.289062 398.261719 949.988281 398.578125 949.753906 399.011719 C 949.320312 398.777344 949.070312 398.597656 948.636719 398.363281 C 948.644531 398.671875 948.652344 398.976562 948.722656 399.402344 C 948.351562 399.289062 948.167969 399.234375 947.980469 399.175781 C 947.929688 399.667969 947.945312 400.28125 947.898438 400.773438 C 947.527344 400.660156 947.089844 400.425781 946.722656 400.308594 C 946.726562 400.617188 946.800781 401.042969 946.871094 401.472656 C 945.878906 401.066406 944.769531 400.726562 943.777344 400.320312 C 943.851562 400.746094 943.855469 401.054688 943.863281 401.359375 C 943.550781 401.058594 943.179688 400.945312 942.929688 400.769531 C 942.746094 400.710938 942.558594 400.65625 942.125 400.421875 C 942.183594 400.234375 942.054688 399.992188 942.046875 399.6875 C 940.894531 400.144531 940.628906 399.351562 940.179688 398.503906 C 939.988281 398.140625 939.671875 397.84375 939.421875 397.664062 C 938.054688 396.839844 938.054688 396.839844 938.390625 395.421875 C 938.390625 395.421875 938.324219 395.300781 938.261719 395.179688 C 938.019531 395.308594 937.839844 395.558594 937.597656 395.683594 C 937.597656 395.683594 937.476562 395.75 937.476562 395.75 C 936.785156 395.03125 936.15625 394.433594 935.585938 393.648438 C 935.460938 393.40625 935.386719 392.980469 935.195312 392.617188 C 934.953125 392.746094 934.644531 392.75 934.523438 392.816406 C 934.460938 392.695312 934.339844 392.757812 934.398438 392.574219 C 934.382812 391.960938 934.003906 391.539062 933.382812 391.25 C 932.765625 390.957031 932.933594 390.402344 932.679688 389.917969 C 931.507812 389.761719 931.507812 389.761719 931.980469 388.890625 C 931.230469 388.359375 931.9375 389.691406 931.1875 389.15625 C 931.125 389.035156 930.875 388.855469 930.933594 388.671875 C 931.101562 388.117188 930.601562 387.761719 930.289062 387.460938 C 929.726562 386.984375 929.648438 386.25 929.148438 385.894531 C 928.835938 385.59375 928.585938 385.417969 928.222656 385.609375 C 928.101562 385.675781 927.914062 385.617188 927.792969 385.679688 C 927.789062 385.375 927.722656 385.253906 927.78125 385.070312 C 927.757812 384.148438 927.4375 383.542969 926.566406 383.074219 C 926.070312 382.71875 925.503906 382.242188 925.25 381.757812 C 925.113281 381.207031 924.679688 380.972656 924.179688 380.617188 C 924.234375 380.433594 924.292969 380.246094 924.472656 379.996094 C 923.671875 379.957031 923.957031 379.027344 923.335938 378.738281 C 923.128906 377.761719 921.710938 377.425781 921.746094 376.324219 C 921.191406 376.152344 921.183594 375.847656 921.046875 375.296875 C 920.976562 374.871094 920.71875 374.386719 920.46875 374.207031 C 919.535156 373.617188 919.378906 372.148438 918.082031 371.75 C 918.195312 371.382812 918.550781 370.882812 917.808594 370.65625 C 917.070312 370.425781 916.683594 369.699219 916.425781 369.214844 C 915.914062 368.246094 915.34375 367.464844 914.707031 366.558594 C 914.578125 366.316406 914.628906 365.824219 914.257812 365.710938 C 914.5 365.582031 914.558594 365.398438 914.679688 365.335938 C 914.179688 364.976562 913.679688 364.621094 912.996094 364.210938 C 913.117188 364.144531 913.054688 364.023438 913.109375 363.839844 C 912.667969 363.296875 912.226562 362.757812 911.785156 362.214844 C 911.71875 362.09375 911.65625 361.972656 911.710938 361.789062 C 911.882812 361.230469 911.632812 361.054688 911.085938 361.191406 C 911.140625 361.003906 911.261719 360.941406 911.441406 360.691406 C 910.941406 360.335938 910.621094 359.730469 910.421875 359.058594 C 910.101562 358.453125 909.660156 357.914062 909.214844 357.371094 C 908.394531 356.410156 907.183594 354.417969 906.71875 352.957031 C 907.28125 353.433594 907.78125 353.789062 908.34375 354.265625 C 908.464844 354.203125 908.464844 354.203125 908.585938 354.136719 C 908.332031 353.652344 908.136719 353.289062 907.632812 352.628906 C 908.4375 352.976562 908.871094 353.210938 909.492188 353.503906 C 910.546875 354.03125 911.367188 354.992188 912.597656 355.269531 C 913.15625 355.4375 913.597656 355.980469 913.976562 356.398438 C 914.289062 356.699219 914.722656 356.933594 914.914062 357.296875 C 915.171875 357.78125 915.480469 357.773438 915.914062 358.007812 C 916.097656 358.066406 916.105469 358.371094 916.234375 358.613281 C 916.300781 358.734375 916.605469 358.726562 916.789062 358.785156 C 917.105469 359.085938 916.933594 359.640625 917.546875 359.625 C 918.066406 360.902344 919.484375 361.234375 920.25 362.382812 C 920.820312 363.164062 921.566406 363.699219 922.136719 364.480469 C 922.265625 364.722656 922.636719 364.835938 923.136719 365.195312 C 923.136719 365.195312 923.144531 365.5 923.144531 365.5 C 923.585938 366.039062 923.964844 366.460938 924.460938 366.816406 C 924.710938 366.996094 925.082031 367.109375 925.332031 367.285156 C 925.410156 368.019531 925.910156 368.375 926.707031 368.417969 C 926.714844 368.726562 926.777344 368.847656 926.722656 369.03125 C 927.027344 369.023438 927.214844 369.082031 927.335938 369.015625 C 927.464844 369.257812 927.65625 369.621094 927.785156 369.863281 C 927.976562 370.226562 928.289062 370.527344 928.484375 370.890625 C 928.675781 371.253906 928.988281 371.550781 929.304688 371.851562 C 929.738281 372.085938 930.058594 372.691406 930.4375 373.113281 C 930.628906 373.476562 930.820312 373.835938 931.128906 373.832031 C 931.683594 374 932.0625 374.421875 932.199219 374.96875 C 932.261719 375.089844 932.328125 375.210938 932.511719 375.269531 C 933.253906 375.496094 933.75 375.851562 934.195312 376.394531 C 934.386719 376.757812 934.886719 377.113281 935.078125 377.476562 C 935.140625 377.597656 935.269531 377.839844 935.457031 377.894531 C 936.695312 378.480469 937.394531 379.503906 938.335938 380.402344 C 938.964844 381 939.589844 381.597656 940.097656 382.261719 C 940.980469 383.34375 940.46875 382.375 941.289062 383.335938 C 941.351562 383.457031 941.417969 383.578125 941.417969 383.578125 C 942.285156 384.046875 942.550781 384.839844 942.878906 385.75 C 943.007812 385.992188 943.320312 386.289062 943.503906 386.347656 C 944.0625 386.519531 944.4375 386.9375 944.695312 387.421875 C 944.953125 387.90625 945.144531 388.269531 945.824219 388.375 C 946.007812 388.433594 946.199219 388.796875 946.328125 389.039062 C 946.464844 389.585938 946.84375 390.007812 947.398438 390.179688 C 947.832031 390.414062 948.269531 390.648438 948.21875 391.140625 C 948.226562 391.445312 948.902344 391.550781 948.667969 391.988281 C 948.667969 391.988281 949.167969 392.34375 949.351562 392.398438 C 949.429688 393.132812 949.203125 393.875 949.832031 394.472656 C 949.894531 394.59375 950.023438 394.835938 949.902344 394.902344 C 949.125 395.777344 949.632812 396.441406 949.648438 397.050781 C 949.71875 397.480469 950.03125 397.777344 950.644531 397.765625 Z M 950.644531 397.765625 "/></g></g></g><g clip-rule="nonzero" clip-path="url(#e1131fd239)"><g clip-rule="nonzero" clip-path="url(#d36ec4c623)"><g clip-rule="nonzero" clip-path="url(#dff6141d8a)"><path style=" stroke:none;fill-rule:nonzero;fill:#38b6ff;fill-opacity:1;" d="M 847.453125 369.027344 C 848.007812 369.195312 848.257812 369.375 848.75 369.425781 C 849.011719 370.214844 849.21875 371.191406 849.613281 372.222656 C 849.957031 373.75 850.175781 375.335938 850.519531 376.863281 C 850.585938 376.984375 850.59375 377.289062 850.535156 377.472656 C 850.308594 378.214844 850.386719 378.949219 850.53125 379.804688 C 850.664062 380.351562 850.921875 380.835938 850.566406 381.335938 C 850.386719 381.585938 850.515625 381.828125 850.523438 382.132812 C 850.46875 382.320312 850.59375 382.5625 850.539062 382.746094 C 850.191406 383.550781 850.453125 384.34375 850.773438 384.949219 C 851.03125 385.433594 850.667969 385.625 850.675781 385.929688 C 850.746094 386.359375 851.191406 386.898438 850.585938 387.222656 C 851.019531 387.457031 850.71875 387.769531 850.726562 388.074219 C 850.734375 388.382812 850.683594 388.875 850.515625 389.429688 C 850.777344 390.21875 850.679688 391.203125 850.460938 392.25 C 850.957031 392.605469 851.214844 393.089844 850.796875 393.46875 C 850.375 393.847656 850.382812 394.152344 850.574219 394.515625 C 850.640625 394.636719 850.582031 394.824219 850.648438 394.945312 C 850.105469 395.386719 850.539062 395.621094 850.855469 395.921875 C 850.496094 396.417969 849.957031 396.863281 850.34375 397.585938 C 850.46875 397.828125 850.234375 398.265625 850.121094 398.636719 C 849.886719 399.070312 850.925781 398.984375 850.320312 399.304688 C 851.007812 399.71875 850.464844 400.160156 850.230469 400.59375 C 850.109375 400.660156 850.171875 400.78125 850.050781 400.84375 C 850.238281 400.902344 850.300781 401.023438 850.488281 401.078125 C 850.429688 401.265625 850.308594 401.328125 850.25 401.511719 C 850.742188 401.5625 850.507812 401.996094 850.507812 401.996094 C 849.910156 402.625 850.359375 403.472656 850.066406 404.09375 C 849.71875 404.898438 849.917969 405.566406 850 406.300781 C 850.011719 406.914062 849.65625 407.414062 850.21875 407.890625 C 850.285156 408.011719 850.171875 408.382812 850.113281 408.566406 C 849.523438 409.5 849.980469 410.65625 849.882812 411.636719 C 849.886719 411.945312 849.960938 412.371094 849.902344 412.558594 C 849.609375 413.175781 849.503906 413.855469 849.09375 414.539062 C 848.621094 415.40625 848.636719 416.019531 848.902344 416.8125 C 848.964844 416.933594 849.03125 417.054688 848.972656 417.238281 C 848.132812 417.996094 848.140625 418.300781 848.644531 418.964844 C 848.417969 419.703125 847.636719 420.273438 848.207031 421.058594 C 847.90625 421.371094 847.730469 421.621094 847.550781 421.871094 C 847.179688 421.757812 846.808594 421.644531 846.382812 421.714844 C 846.203125 421.964844 846.148438 422.148438 845.90625 422.277344 C 845.664062 422.40625 845.355469 422.414062 845.113281 422.542969 C 845.050781 422.421875 844.921875 422.179688 844.792969 421.9375 C 844.558594 422.371094 844.257812 422.683594 844.023438 423.121094 C 843.652344 423.007812 843.40625 422.828125 842.96875 422.59375 C 842.855469 422.964844 842.800781 423.148438 842.742188 423.335938 C 842.128906 423.347656 842.179688 422.859375 842.109375 422.429688 C 841.496094 422.445312 841.003906 422.394531 841.046875 421.597656 C 840.980469 421.476562 840.851562 421.234375 840.851562 421.234375 C 839.75 421.199219 839.90625 420.03125 839.339844 419.554688 C 839.15625 419.496094 839.207031 419.003906 839.261719 418.820312 C 839.296875 417.714844 839.089844 416.738281 838.882812 415.761719 C 838.8125 415.335938 838.738281 414.910156 838.976562 414.472656 C 839.5 413.417969 838.738281 412.273438 839.078125 411.160156 C 839.363281 410.234375 839.09375 409.136719 839.191406 408.152344 C 839.234375 407.355469 839.460938 406.613281 839.503906 405.816406 C 839.539062 404.710938 840.128906 403.777344 839.859375 402.683594 C 839.792969 402.5625 839.972656 402.3125 840.027344 402.125 C 840.078125 401.632812 840.371094 401.015625 839.871094 400.660156 C 839.558594 400.359375 839.550781 400.054688 839.90625 399.554688 C 840.316406 398.871094 840.609375 398.25 840.652344 397.453125 C 840.703125 396.960938 840.628906 396.53125 840.558594 396.105469 C 840.59375 395 840.757812 394.136719 841.332031 392.59375 C 841.625 391.972656 841.546875 391.238281 841.652344 390.5625 C 841.644531 390.253906 841.757812 389.882812 841.871094 389.515625 C 841.125 388.980469 841.714844 388.046875 841.636719 387.3125 C 841.734375 386.328125 842.324219 385.394531 842.175781 384.234375 C 842.109375 384.113281 842.351562 383.984375 842.410156 383.800781 C 842.46875 383.613281 842.589844 383.550781 842.523438 383.429688 C 842.421875 381.777344 842.359375 381.65625 842.707031 380.847656 C 843.296875 379.914062 843.332031 378.8125 843.554688 377.765625 C 843.609375 377.578125 843.609375 377.578125 843.546875 377.457031 C 844.234375 375.539062 844.371094 373.453125 845.617188 371.707031 C 846.390625 370.828125 846.859375 369.960938 847.453125 369.027344 Z M 847.453125 369.027344 "/></g></g></g><g clip-rule="nonzero" clip-path="url(#84b94a6999)"><g clip-rule="nonzero" clip-path="url(#b579738a46)"><g clip-rule="nonzero" clip-path="url(#b47ed477fb)"><path style=" stroke:none;fill-rule:nonzero;fill:#38b6ff;fill-opacity:1;" d="M 934.339844 302.945312 C 934.386719 302.453125 934.5 302.082031 934.671875 301.527344 C 935.460938 301.261719 936.429688 300.746094 937.34375 300.417969 C 938.738281 299.835938 940.328125 299.613281 941.84375 298.964844 C 941.964844 298.898438 942.273438 298.890625 942.457031 298.949219 C 943.320312 299.113281 943.988281 298.910156 944.78125 298.648438 C 945.328125 298.511719 945.75 298.132812 946.367188 298.425781 C 946.554688 298.484375 946.980469 298.410156 947.289062 298.402344 C 947.472656 298.460938 947.773438 298.148438 947.835938 298.269531 C 948.761719 298.550781 949.367188 298.230469 950.03125 297.726562 C 950.449219 297.347656 950.707031 297.832031 950.949219 297.703125 C 951.378906 297.632812 951.734375 297.132812 952.296875 297.609375 C 952.53125 297.175781 952.78125 297.351562 953.085938 297.34375 C 953.515625 297.273438 953.886719 297.386719 954.496094 297.375 C 955.222656 296.988281 956.328125 297.023438 957.3125 297.121094 C 957.601562 296.503906 957.964844 296.308594 958.53125 296.785156 C 958.84375 297.085938 959.148438 297.078125 959.511719 296.886719 C 959.632812 296.820312 959.875 296.691406 959.941406 296.8125 C 960.503906 297.289062 960.617188 296.921875 960.851562 296.484375 C 961.40625 296.65625 961.914062 297.320312 962.578125 296.8125 C 962.820312 296.683594 963.308594 296.734375 963.558594 296.910156 C 963.929688 297.023438 963.789062 296.171875 964.164062 296.589844 C 964.578125 295.90625 964.957031 296.324219 965.511719 296.496094 C 965.574219 296.617188 965.695312 296.554688 965.882812 296.609375 C 965.9375 296.425781 965.996094 296.238281 965.996094 296.238281 C 966.179688 296.296875 966.367188 296.355469 966.429688 296.476562 C 966.359375 296.046875 966.914062 296.21875 966.914062 296.21875 C 967.597656 296.628906 968.324219 296.246094 969.003906 296.351562 C 969.742188 296.578125 970.535156 296.316406 971.269531 296.238281 C 971.816406 296.101562 972.4375 296.390625 972.914062 295.828125 C 973.035156 295.765625 973.339844 295.757812 973.589844 295.9375 C 974.644531 296.460938 975.671875 295.761719 976.589844 295.742188 C 976.777344 295.796875 977.140625 295.605469 977.386719 295.785156 C 978.007812 296.074219 978.804688 296.117188 979.363281 296.289062 C 980.167969 296.636719 980.902344 296.558594 981.628906 296.171875 C 981.75 296.109375 981.871094 296.042969 981.992188 295.980469 C 982.804688 296.636719 983.175781 296.75 983.773438 296.121094 C 984.449219 296.226562 985.140625 296.945312 985.859375 296.253906 C 986.238281 296.675781 986.609375 296.789062 986.859375 296.96875 C 986.867188 297.273438 986.816406 297.765625 986.703125 298.136719 C 986.953125 298.3125 987.257812 298.304688 987.386719 298.546875 C 987.515625 298.789062 987.644531 299.03125 987.652344 299.339844 C 987.53125 299.402344 987.289062 299.53125 987.230469 299.71875 C 987.664062 299.953125 988.101562 300.1875 988.46875 300.300781 C 988.355469 300.671875 988.242188 301.042969 988.007812 301.476562 C 988.316406 301.46875 988.5 301.527344 988.804688 301.519531 C 988.886719 302.253906 988.457031 302.324219 988.085938 302.210938 C 988.101562 302.824219 988.117188 303.4375 987.316406 303.394531 C 987.195312 303.457031 986.953125 303.585938 987.019531 303.707031 C 987.105469 304.746094 985.878906 304.777344 985.46875 305.460938 C 985.410156 305.644531 984.984375 305.71875 984.796875 305.660156 C 983.757812 305.746094 982.78125 305.953125 981.75 306.347656 C 981.386719 306.539062 980.894531 306.488281 980.523438 306.375 C 979.410156 306.035156 978.449219 306.855469 977.21875 306.578125 C 976.355469 306.414062 975.324219 306.808594 974.28125 306.894531 C 973.546875 306.972656 972.808594 306.746094 971.886719 306.765625 C 970.847656 306.851562 969.792969 306.328125 968.761719 306.71875 C 968.640625 306.78125 968.390625 306.605469 968.082031 306.613281 C 967.65625 306.683594 967.035156 306.390625 966.558594 306.957031 C 966.261719 307.269531 965.953125 307.277344 965.398438 307.105469 C 964.777344 306.8125 963.972656 306.464844 963.238281 306.542969 C 962.8125 306.617188 962.382812 306.6875 961.890625 306.636719 C 960.730469 306.789062 959.867188 306.625 958.265625 306.234375 C 957.589844 306.128906 956.855469 306.207031 956.175781 306.101562 C 955.871094 306.105469 955.5 305.992188 955.128906 305.878906 C 954.597656 306.628906 953.789062 306.28125 952.992188 306.238281 C 951.953125 306.324219 951.019531 305.734375 949.921875 306.003906 C 949.800781 306.070312 949.550781 305.890625 949.488281 305.769531 C 949.300781 305.710938 949.238281 305.589844 949.117188 305.65625 C 947.59375 306 947.472656 306.0625 946.542969 305.777344 C 945.554688 305.375 944.515625 305.460938 943.34375 305.304688 C 943.222656 305.367188 943.160156 305.246094 943.039062 305.3125 C 941.066406 304.804688 938.984375 304.976562 937.058594 303.980469 C 936.320312 303.753906 935.328125 303.347656 934.339844 302.945312 Z M 934.339844 302.945312 "/></g></g></g><g clip-rule="nonzero" clip-path="url(#98894a89b1)"><g clip-rule="nonzero" clip-path="url(#0022f176d0)"><g clip-rule="nonzero" clip-path="url(#86f97589fa)"><path style=" stroke:none;fill-rule:nonzero;fill:#38b6ff;fill-opacity:1;" d="M 819.648438 362.519531 C 819.476562 363.074219 819.121094 363.574219 819.496094 363.992188 C 819.617188 363.929688 819.859375 363.800781 819.980469 363.738281 C 819.980469 363.738281 820.046875 363.859375 820.046875 363.859375 C 819.726562 365.886719 819.039062 367.804688 818.226562 369.785156 C 817.878906 370.59375 817.59375 371.519531 817.125 372.386719 C 816.597656 373.441406 816.007812 374.375 815.359375 375.496094 C 815.125 375.929688 814.890625 376.363281 814.65625 376.800781 C 814.539062 377.171875 814.304688 377.605469 814.191406 377.976562 C 813.65625 378.722656 812.9375 379.414062 812.46875 380.285156 C 812 381.15625 811.714844 382.082031 811.367188 382.886719 C 811.253906 383.257812 811.019531 383.691406 810.71875 384.003906 C 810.128906 384.9375 809.351562 385.816406 808.761719 386.75 C 808.292969 387.621094 807.820312 388.488281 807.351562 389.359375 C 807.0625 389.980469 806.703125 390.476562 806.347656 390.976562 C 806.113281 391.410156 805.628906 391.667969 805.644531 392.28125 C 805.644531 392.28125 805.585938 392.464844 805.585938 392.464844 C 804.382812 393.414062 803.921875 394.589844 803.402344 395.953125 C 803.347656 396.136719 803.105469 396.265625 802.863281 396.394531 C 802.683594 396.644531 802.199219 396.898438 802.140625 397.085938 C 801.984375 398.253906 801.265625 398.945312 800.546875 399.636719 C 800.128906 400.015625 799.894531 400.449219 799.539062 400.949219 C 799.246094 401.570312 798.890625 402.066406 798.285156 402.386719 C 797.921875 402.582031 797.566406 403.082031 797.515625 403.570312 C 797.179688 404.988281 795.914062 405.816406 794.894531 406.824219 C 794.296875 407.449219 793.3125 407.351562 792.894531 407.730469 C 792.097656 407.6875 791.484375 407.699219 790.871094 407.714844 C 790.257812 407.730469 790.066406 407.367188 789.871094 407.003906 C 789.550781 406.398438 789.175781 405.976562 788.496094 405.871094 C 788.425781 405.445312 788.234375 405.082031 788.226562 404.773438 C 788.089844 404.226562 788.019531 403.800781 788.1875 403.242188 C 788.300781 402.871094 788.417969 402.5 788.34375 402.074219 C 788.453125 401.398438 788.4375 400.785156 789.226562 400.519531 C 789.226562 400.519531 789.347656 400.457031 789.347656 400.457031 C 789.496094 398.980469 790.949219 398.210938 791.535156 396.972656 C 791.882812 396.164062 792.480469 395.539062 792.335938 394.683594 C 792.757812 394.304688 793.113281 393.804688 793.53125 393.429688 C 794.496094 392.609375 795.335938 391.851562 795.613281 390.621094 C 795.667969 390.433594 795.96875 390.121094 796.210938 389.992188 C 796.628906 389.613281 797.300781 389.414062 797.40625 388.738281 C 798.316406 388.410156 798.351562 387.304688 799.199219 386.855469 C 799.804688 386.535156 800.097656 385.914062 800.203125 385.238281 C 800.316406 384.867188 800.550781 384.433594 800.980469 384.359375 C 801.707031 383.976562 802.304688 383.347656 802.652344 382.542969 C 802.886719 382.109375 803.429688 381.667969 803.664062 381.230469 C 804.3125 380.113281 805.394531 379.226562 806.289062 378.289062 C 806.648438 377.789062 807.003906 377.289062 807.480469 376.726562 C 807.835938 376.226562 808.253906 375.847656 808.613281 375.351562 C 808.789062 375.101562 809.03125 374.972656 809.210938 374.722656 C 810.269531 372.917969 811.949219 371.40625 813.011719 369.605469 C 813.660156 368.484375 814.621094 367.664062 815.332031 366.667969 C 816.222656 365.421875 817.675781 364.648438 818.5625 363.402344 C 818.679688 363.03125 819.164062 362.773438 819.648438 362.519531 Z M 819.648438 362.519531 "/></g></g></g><g style="fill:#004aad;fill-opacity:1;"><g transform="translate(266.183623, 1079.474838)"><path style="stroke:none" d="M 92.65625 4.265625 C 67.84375 4.265625 49.554688 -2.390625 37.796875 -15.703125 C 26.035156 -29.015625 20.15625 -49.109375 20.15625 -75.984375 L 20.15625 -241.890625 C 20.15625 -253.265625 23.125 -261.921875 29.0625 -267.859375 C 35.007812 -273.804688 43.410156 -276.78125 54.265625 -276.78125 C 65.378906 -276.78125 73.972656 -273.804688 80.046875 -267.859375 C 86.117188 -261.921875 89.15625 -253.265625 89.15625 -241.890625 L 89.15625 -78.3125 C 89.15625 -68.75 91.03125 -61.769531 94.78125 -57.375 C 98.53125 -52.976562 103.375 -50.78125 109.3125 -50.78125 C 111.125 -50.78125 113 -50.972656 114.9375 -51.359375 C 116.875 -51.753906 119.007812 -52.078125 121.34375 -52.328125 C 125.726562 -52.328125 129.019531 -50.644531 131.21875 -47.28125 C 133.414062 -43.925781 134.515625 -37.082031 134.515625 -26.75 C 134.515625 -17.707031 132.703125 -10.921875 129.078125 -6.390625 C 125.460938 -1.867188 119.910156 1.035156 112.421875 2.328125 C 110.347656 2.585938 107.375 2.972656 103.5 3.484375 C 99.625 4.003906 96.007812 4.265625 92.65625 4.265625 Z M 92.65625 4.265625 "/></g></g><g style="fill:#004aad;fill-opacity:1;"><g transform="translate(401.089036, 1079.474838)"><path style="stroke:none" d="M 86.453125 4.265625 C 71.710938 4.265625 58.722656 1.550781 47.484375 -3.875 C 36.242188 -9.300781 27.457031 -16.726562 21.125 -26.15625 C 14.789062 -35.59375 11.625 -46.382812 11.625 -58.53125 C 11.625 -72.488281 15.242188 -83.472656 22.484375 -91.484375 C 29.722656 -99.492188 41.351562 -105.242188 57.375 -108.734375 C 73.394531 -112.222656 94.71875 -113.96875 121.34375 -113.96875 L 142.65625 -113.96875 L 142.65625 -81.40625 L 121.34375 -81.40625 C 111.257812 -81.40625 102.921875 -80.691406 96.328125 -79.265625 C 89.742188 -77.847656 84.898438 -75.65625 81.796875 -72.6875 C 78.691406 -69.71875 77.140625 -65.90625 77.140625 -61.25 C 77.140625 -55.300781 79.269531 -50.390625 83.53125 -46.515625 C 87.800781 -42.640625 93.941406 -40.703125 101.953125 -40.703125 C 108.410156 -40.703125 114.160156 -42.125 119.203125 -44.96875 C 124.242188 -47.8125 128.3125 -51.75 131.40625 -56.78125 C 134.507812 -61.820312 136.0625 -67.707031 136.0625 -74.4375 L 136.0625 -119.390625 C 136.0625 -128.703125 133.671875 -135.296875 128.890625 -139.171875 C 124.109375 -143.046875 115.90625 -144.984375 104.28125 -144.984375 C 98.070312 -144.984375 91.09375 -144.269531 83.34375 -142.84375 C 75.59375 -141.425781 66.9375 -138.910156 57.375 -135.296875 C 50.394531 -132.710938 44.445312 -132.320312 39.53125 -134.125 C 34.625 -135.9375 30.8125 -139.035156 28.09375 -143.421875 C 25.382812 -147.816406 24.09375 -152.597656 24.21875 -157.765625 C 24.351562 -162.941406 26.035156 -167.851562 29.265625 -172.5 C 32.492188 -177.15625 37.46875 -180.773438 44.1875 -183.359375 C 56.59375 -188.015625 68.03125 -191.113281 78.5 -192.65625 C 88.96875 -194.207031 98.59375 -194.984375 107.375 -194.984375 C 128.570312 -194.984375 146.082031 -191.945312 159.90625 -185.875 C 173.726562 -179.800781 184.0625 -170.5 190.90625 -157.96875 C 197.757812 -145.4375 201.1875 -129.347656 201.1875 -109.703125 L 201.1875 -31.40625 C 201.1875 -20.03125 198.472656 -11.367188 193.046875 -5.421875 C 187.617188 0.515625 179.738281 3.484375 169.40625 3.484375 C 158.8125 3.484375 150.734375 0.515625 145.171875 -5.421875 C 139.617188 -11.367188 136.84375 -20.03125 136.84375 -31.40625 L 136.84375 -41.484375 L 139.171875 -36.046875 C 137.878906 -27.773438 134.90625 -20.664062 130.25 -14.71875 C 125.601562 -8.78125 119.53125 -4.128906 112.03125 -0.765625 C 104.539062 2.585938 96.015625 4.265625 86.453125 4.265625 Z M 86.453125 4.265625 "/></g></g><g style="fill:#004aad;fill-opacity:1;"><g transform="translate(621.279567, 1079.474838)"><path style="stroke:none" d="M 55.046875 3.484375 C 44.191406 3.484375 35.789062 0.515625 29.84375 -5.421875 C 23.90625 -11.367188 20.9375 -20.03125 20.9375 -31.40625 L 20.9375 -159.71875 C 20.9375 -170.832031 23.84375 -179.359375 29.65625 -185.296875 C 35.46875 -191.242188 43.800781 -194.21875 54.65625 -194.21875 C 65.507812 -194.21875 73.78125 -191.242188 79.46875 -185.296875 C 85.15625 -179.359375 88 -170.832031 88 -159.71875 L 88 -138.390625 L 83.734375 -157.390625 C 89.160156 -168.753906 97.234375 -177.859375 107.953125 -184.703125 C 118.679688 -191.554688 131.410156 -194.984375 146.140625 -194.984375 C 160.097656 -194.984375 172.050781 -191.625 182 -184.90625 C 191.945312 -178.1875 199.117188 -167.976562 203.515625 -154.28125 L 198.09375 -154.28125 C 204.039062 -166.945312 212.957031 -176.894531 224.84375 -184.125 C 236.726562 -191.363281 249.90625 -194.984375 264.375 -194.984375 C 279.363281 -194.984375 291.640625 -192.078125 301.203125 -186.265625 C 310.765625 -180.453125 317.9375 -171.40625 322.71875 -159.125 C 327.5 -146.851562 329.890625 -131.414062 329.890625 -112.8125 L 329.890625 -31.40625 C 329.890625 -20.03125 326.851562 -11.367188 320.78125 -5.421875 C 314.707031 0.515625 306.113281 3.484375 295 3.484375 C 284.144531 3.484375 275.742188 0.515625 269.796875 -5.421875 C 263.859375 -11.367188 260.890625 -20.03125 260.890625 -31.40625 L 260.890625 -110.875 C 260.890625 -121.976562 259.207031 -129.984375 255.84375 -134.890625 C 252.488281 -139.804688 246.9375 -142.265625 239.1875 -142.265625 C 229.625 -142.265625 222.320312 -138.90625 217.28125 -132.1875 C 212.238281 -125.46875 209.71875 -115.90625 209.71875 -103.5 L 209.71875 -31.40625 C 209.71875 -20.03125 206.742188 -11.367188 200.796875 -5.421875 C 194.859375 0.515625 186.332031 3.484375 175.21875 3.484375 C 164.101562 3.484375 155.570312 0.515625 149.625 -5.421875 C 143.6875 -11.367188 140.71875 -20.03125 140.71875 -31.40625 L 140.71875 -110.875 C 140.71875 -121.976562 139.035156 -129.984375 135.671875 -134.890625 C 132.316406 -139.804688 126.765625 -142.265625 119.015625 -142.265625 C 109.710938 -142.265625 102.539062 -138.90625 97.5 -132.1875 C 92.457031 -125.46875 89.9375 -115.90625 89.9375 -103.5 L 89.9375 -31.40625 C 89.9375 -8.144531 78.304688 3.484375 55.046875 3.484375 Z M 55.046875 3.484375 "/></g></g><g style="fill:#004aad;fill-opacity:1;"><g transform="translate(970.948272, 1079.474838)"><path style="stroke:none" d="M 54.265625 73.265625 C 43.410156 73.265625 35.007812 70.289062 29.0625 64.34375 C 23.125 58.40625 20.15625 49.75 20.15625 38.375 L 20.15625 -159.71875 C 20.15625 -170.832031 23.0625 -179.359375 28.875 -185.296875 C 34.695312 -191.242188 43.035156 -194.21875 53.890625 -194.21875 C 64.992188 -194.21875 73.453125 -191.242188 79.265625 -185.296875 C 85.085938 -179.359375 88 -170.832031 88 -159.71875 L 88 -137.234375 L 83.734375 -156.21875 C 87.347656 -167.851562 94.90625 -177.222656 106.40625 -184.328125 C 117.90625 -191.429688 131.023438 -194.984375 145.765625 -194.984375 C 162.296875 -194.984375 176.828125 -190.976562 189.359375 -182.96875 C 201.898438 -174.957031 211.660156 -163.585938 218.640625 -148.859375 C 225.617188 -134.128906 229.109375 -116.296875 229.109375 -95.359375 C 229.109375 -74.941406 225.617188 -57.238281 218.640625 -42.25 C 211.660156 -27.257812 201.898438 -15.757812 189.359375 -7.75 C 176.828125 0.257812 162.296875 4.265625 145.765625 4.265625 C 131.546875 4.265625 118.75 0.90625 107.375 -5.8125 C 96.007812 -12.53125 88.390625 -21.316406 84.515625 -32.171875 L 89.15625 -32.171875 L 89.15625 38.375 C 89.15625 49.75 86.117188 58.40625 80.046875 64.34375 C 73.972656 70.289062 65.378906 73.265625 54.265625 73.265625 Z M 124.046875 -46.515625 C 131.023438 -46.515625 137.160156 -48.257812 142.453125 -51.75 C 147.753906 -55.238281 151.957031 -60.535156 155.0625 -67.640625 C 158.164062 -74.753906 159.71875 -83.992188 159.71875 -95.359375 C 159.71875 -112.679688 156.359375 -125.148438 149.640625 -132.765625 C 142.921875 -140.390625 134.390625 -144.203125 124.046875 -144.203125 C 117.066406 -144.203125 110.863281 -142.519531 105.4375 -139.15625 C 100.007812 -135.800781 95.742188 -130.570312 92.640625 -123.46875 C 89.546875 -116.363281 88 -106.992188 88 -95.359375 C 88 -78.304688 91.359375 -65.898438 98.078125 -58.140625 C 104.796875 -50.390625 113.453125 -46.515625 124.046875 -46.515625 Z M 124.046875 -46.515625 "/></g></g></g></svg>