<svg xmlns="http://www.w3.org/2000/svg" xmlns:xlink="http://www.w3.org/1999/xlink" width="1920" zoomAndPan="magnify" viewBox="0 0 1440 1439.999935" height="1920" preserveAspectRatio="xMidYMid meet" version="1.2"><defs><clipPath id="15ce6e5195"><path d="M 348.496094 422.667969 L 995.066406 422.667969 L 995.066406 1069.238281 L 348.496094 1069.238281 Z M 348.496094 422.667969 "/></clipPath><clipPath id="ce6a55abbb"><path d="M 671.78125 422.667969 C 493.238281 422.667969 348.496094 567.40625 348.496094 745.953125 C 348.496094 924.496094 493.238281 1069.238281 671.78125 1069.238281 C 850.324219 1069.238281 995.066406 924.496094 995.066406 745.953125 C 995.066406 567.40625 850.324219 422.667969 671.78125 422.667969 Z M 671.78125 422.667969 "/></clipPath><clipPath id="b276252a34"><path d="M 856 1129 L 938 1129 L 938 1343 L 856 1343 Z M 856 1129 "/></clipPath><clipPath id="d66a515465"><path d="M 1353.347656 1104.382812 L 674.007812 1489.179688 L 508.039062 1196.167969 L 1187.382812 811.375 Z M 1353.347656 1104.382812 "/></clipPath><clipPath id="812c3e0ed3"><path d="M 1353.347656 1104.382812 L 674.007812 1489.179688 L 508.039062 1196.167969 L 1187.382812 811.375 Z M 1353.347656 1104.382812 "/></clipPath><clipPath id="b92a154eb9"><path d="M 1019 979 L 1210 979 L 1210 1083 L 1019 1083 Z M 1019 979 "/></clipPath><clipPath id="f103787280"><path d="M 1353.347656 1104.382812 L 674.007812 1489.179688 L 508.039062 1196.167969 L 1187.382812 811.375 Z M 1353.347656 1104.382812 "/></clipPath><clipPath id="6be8c95e54"><path d="M 1353.347656 1104.382812 L 674.007812 1489.179688 L 508.039062 1196.167969 L 1187.382812 811.375 Z M 1353.347656 1104.382812 "/></clipPath><clipPath id="0a800d0010"><path d="M 951 1073 L 1108 1073 L 1108 1239 L 951 1239 Z M 951 1073 "/></clipPath><clipPath id="afba24b0a8"><path d="M 1353.347656 1104.382812 L 674.007812 1489.179688 L 508.039062 1196.167969 L 1187.382812 811.375 Z M 1353.347656 1104.382812 "/></clipPath><clipPath id="bdace921fc"><path d="M 1353.347656 1104.382812 L 674.007812 1489.179688 L 508.039062 1196.167969 L 1187.382812 811.375 Z M 1353.347656 1104.382812 "/></clipPath><clipPath id="9dd0bffb79"><path d="M 723 1136 L 764 1136 L 764 1324 L 723 1324 Z M 723 1136 "/></clipPath><clipPath id="e35f8c21fd"><path d="M 1353.347656 1104.382812 L 674.007812 1489.179688 L 508.039062 1196.167969 L 1187.382812 811.375 Z M 1353.347656 1104.382812 "/></clipPath><clipPath id="a9b6035702"><path d="M 1353.347656 1104.382812 L 674.007812 1489.179688 L 508.039062 1196.167969 L 1187.382812 811.375 Z M 1353.347656 1104.382812 "/></clipPath><clipPath id="508e3f52c5"><path d="M 1042 870 L 1231 870 L 1231 912 L 1042 912 Z M 1042 870 "/></clipPath><clipPath id="e853d01684"><path d="M 1353.347656 1104.382812 L 674.007812 1489.179688 L 508.039062 1196.167969 L 1187.382812 811.375 Z M 1353.347656 1104.382812 "/></clipPath><clipPath id="dfd405cb0d"><path d="M 1353.347656 1104.382812 L 674.007812 1489.179688 L 508.039062 1196.167969 L 1187.382812 811.375 Z M 1353.347656 1104.382812 "/></clipPath><clipPath id="77695e04fa"><path d="M 547 1116 L 654 1116 L 654 1275 L 547 1275 Z M 547 1116 "/></clipPath><clipPath id="bc5d48f56b"><path d="M 1353.347656 1104.382812 L 674.007812 1489.179688 L 508.039062 1196.167969 L 1187.382812 811.375 Z M 1353.347656 1104.382812 "/></clipPath><clipPath id="0216b67d52"><path d="M 1353.347656 1104.382812 L 674.007812 1489.179688 L 508.039062 1196.167969 L 1187.382812 811.375 Z M 1353.347656 1104.382812 "/></clipPath><clipPath id="e717e26a04"><path d="M 233 44 L 1224 44 L 1224 1159 L 233 1159 Z M 233 44 "/></clipPath><clipPath id="eaed7a4843"><path d="M -193.753906 334.171875 L 768.359375 -219 L 1265.566406 645.78125 L 303.453125 1198.949219 Z M -193.753906 334.171875 "/></clipPath><clipPath id="3a9e74ab40"><path d="M 394.480469 59.21875 L 1169.558594 513.195312 C 1203.027344 532.800781 1223.53125 568.738281 1223.375 607.523438 C 1223.21875 646.3125 1202.425781 682.082031 1168.800781 701.417969 L 398.617188 1144.238281 C 364.988281 1163.570312 323.613281 1163.542969 290.015625 1144.164062 C 256.414062 1124.78125 235.671875 1088.984375 235.570312 1050.195312 L 233.1875 151.953125 C 233.085938 113.503906 253.59375 77.949219 286.925781 58.785156 C 320.257812 39.621094 361.304688 39.785156 394.480469 59.21875 Z M 394.480469 59.21875 "/></clipPath></defs><g id="39568c9199"><g clip-rule="nonzero" clip-path="url(#15ce6e5195)"><g clip-rule="nonzero" clip-path="url(#ce6a55abbb)"><path style=" stroke:none;fill-rule:nonzero;fill:#38b6ff;fill-opacity:1;" d="M 348.496094 422.667969 L 995.066406 422.667969 L 995.066406 1069.238281 L 348.496094 1069.238281 Z M 348.496094 422.667969 "/></g></g><g clip-rule="nonzero" clip-path="url(#b276252a34)"><g clip-rule="nonzero" clip-path="url(#d66a515465)"><g clip-rule="nonzero" clip-path="url(#812c3e0ed3)"><path style=" stroke:none;fill-rule:nonzero;fill:#38b6ff;fill-opacity:1;" d="M 868.648438 1222.558594 C 869.238281 1221.683594 869.828125 1220.804688 870.238281 1220.570312 C 869.308594 1218.925781 868.195312 1217.925781 867.265625 1216.277344 C 866.566406 1215.042969 866.042969 1213.164062 865.757812 1211.699219 C 865.523438 1211.285156 865.703125 1210.640625 865.648438 1209.585938 C 865.59375 1208.53125 865.769531 1207.886719 865.304688 1207.0625 C 864.371094 1205.417969 864.675781 1203.070312 862.6875 1201.480469 C 862.453125 1201.070312 862.632812 1200.425781 862.398438 1200.011719 C 863.289062 1196.789062 861.425781 1193.5 861.441406 1189.6875 C 861.617188 1189.042969 860.972656 1188.863281 860.917969 1187.808594 C 860.21875 1186.574219 859.933594 1185.105469 860.054688 1183.40625 C 860.359375 1181.058594 859.191406 1179 858.4375 1176.710938 C 857.972656 1175.886719 858.152344 1175.242188 858.097656 1174.1875 C 858.21875 1172.488281 858.34375 1170.785156 857 1169.375 C 856.765625 1168.960938 856.300781 1168.140625 856.710938 1167.90625 C 858.015625 1164.449219 855.507812 1160.980469 856.167969 1157.347656 C 856.34375 1156.703125 856.289062 1155.644531 856.46875 1155 C 856.59375 1153.300781 856.304688 1151.832031 856.429688 1150.132812 C 856.550781 1148.433594 856.910156 1147.144531 857.03125 1145.441406 C 857.636719 1140.753906 858.242188 1136.0625 859.078125 1131.785156 C 859.257812 1131.140625 859.433594 1130.496094 859.613281 1129.851562 C 860.078125 1130.671875 860.957031 1131.261719 860.957031 1131.261719 C 863.246094 1130.507812 863.535156 1131.976562 864.878906 1133.390625 C 869.664062 1139.917969 874.039062 1146.679688 878.234375 1154.085938 C 879.632812 1156.554688 880.617188 1159.257812 881.605469 1161.960938 C 882.070312 1162.78125 882.769531 1164.015625 883.648438 1164.605469 C 885.402344 1165.785156 885.871094 1166.609375 885.335938 1168.542969 C 884.976562 1169.832031 885.5 1171.710938 886.429688 1173.355469 C 887.183594 1175.648438 887.9375 1177.9375 888.691406 1180.226562 C 889.160156 1181.050781 889.625 1181.875 890.089844 1182.695312 C 890.613281 1184.574219 893.367188 1184.644531 893.066406 1186.988281 C 892.941406 1188.691406 893.464844 1190.570312 893.339844 1192.269531 C 893.160156 1192.914062 893.625 1193.738281 893.449219 1194.382812 C 895.613281 1195.328125 896.136719 1197.207031 896.65625 1199.085938 C 897.175781 1200.964844 898.289062 1201.964844 897.984375 1204.3125 C 897.683594 1206.65625 898.671875 1209.359375 900.890625 1211.363281 C 902.234375 1212.773438 902.933594 1214.007812 903.042969 1216.121094 C 903.441406 1219.699219 904.25 1223.046875 905.058594 1226.394531 C 905.113281 1227.449219 905.578125 1228.273438 906.046875 1229.09375 C 906.332031 1230.5625 906.855469 1232.441406 907.140625 1233.910156 C 907.664062 1235.789062 908.183594 1237.667969 908.9375 1239.957031 C 908.992188 1241.011719 909.691406 1242.246094 909.746094 1243.304688 C 910.265625 1245.183594 910.144531 1246.882812 911.71875 1248.707031 C 913.996094 1251.765625 914.394531 1255.347656 915.203125 1258.691406 C 915.722656 1260.570312 915.421875 1262.917969 917.640625 1264.917969 C 917.875 1265.332031 918.109375 1265.742188 917.929688 1266.386719 C 917.859375 1269.144531 918.4375 1272.078125 919.421875 1274.78125 C 919.65625 1275.191406 919.476562 1275.835938 919.710938 1276.246094 C 922.972656 1282.007812 922.972656 1282.007812 923.535156 1288.753906 C 923.589844 1289.8125 924.464844 1290.402344 924.753906 1291.867188 C 925.453125 1293.101562 925.972656 1294.980469 926.671875 1296.214844 C 926.90625 1296.628906 926.726562 1297.273438 926.960938 1297.683594 C 928.359375 1300.152344 928.703125 1302.675781 929.457031 1304.96875 C 930.320312 1309.371094 933.0625 1313.25 935.160156 1316.953125 C 936.089844 1318.601562 936.558594 1319.421875 934.5 1320.589844 C 935.144531 1320.765625 935.789062 1320.945312 936.023438 1321.355469 C 936.253906 1321.769531 937.132812 1322.359375 936.953125 1323.003906 C 936.832031 1324.703125 937.351562 1326.582031 937.640625 1328.050781 C 938.105469 1328.871094 937.105469 1329.984375 936.925781 1330.628906 C 936.746094 1331.273438 936.101562 1331.09375 935.925781 1331.738281 C 935.800781 1333.4375 935.675781 1335.140625 935.554688 1336.839844 C 935.195312 1338.128906 934.195312 1339.238281 933.015625 1340.996094 C 931.492188 1340.226562 929.148438 1339.925781 926.980469 1338.976562 C 926.390625 1339.855469 925.390625 1340.964844 924.386719 1342.078125 C 922.042969 1341.773438 919.464844 1341.0625 917.121094 1340.757812 L 912.730469 1337.808594 C 911.621094 1336.808594 910.976562 1336.628906 909.5625 1337.972656 C 908.164062 1335.503906 907.179688 1332.804688 904.367188 1331.679688 C 904.132812 1331.265625 903.902344 1330.855469 903.667969 1330.445312 C 903.203125 1329.621094 903.148438 1328.5625 902.449219 1327.328125 C 901.515625 1325.683594 900.816406 1324.449219 900.941406 1322.75 C 901.117188 1322.105469 901.0625 1321.046875 899.773438 1320.691406 C 897.839844 1320.15625 897.964844 1318.457031 898.089844 1316.753906 C 898.335938 1313.355469 896.703125 1310.472656 894.25 1308.058594 C 894.015625 1307.648438 893.140625 1307.058594 892.671875 1306.234375 C 893.621094 1304.070312 893.511719 1301.957031 892.347656 1299.898438 C 891.070312 1295.730469 889.796875 1291.5625 888.523438 1287.390625 C 888.289062 1286.980469 888.234375 1285.925781 888 1285.511719 C 886.425781 1283.6875 885.902344 1281.808594 885.792969 1279.695312 C 885.398438 1276.117188 883.765625 1273.238281 882.132812 1270.355469 C 881.667969 1269.535156 882.203125 1267.601562 880.269531 1267.066406 C 879.625 1266.886719 879.105469 1265.007812 879.28125 1264.363281 C 880.640625 1261.964844 878.597656 1259.316406 878.488281 1257.203125 C 878.667969 1256.558594 877.96875 1255.324219 877.554688 1255.558594 C 874.746094 1254.433594 875.871094 1251.621094 874.703125 1249.566406 C 874.238281 1248.742188 875.882812 1247.808594 875.183594 1246.574219 C 873.375 1244.339844 873.03125 1241.816406 872.277344 1239.527344 C 871.8125 1238.703125 871.757812 1237.648438 871.703125 1236.589844 C 871.46875 1236.179688 871.828125 1234.890625 871.183594 1234.710938 C 869.675781 1230.128906 871.15625 1226.03125 868.648438 1222.558594 Z M 868.648438 1222.558594 "/></g></g></g><g clip-rule="nonzero" clip-path="url(#b92a154eb9)"><g clip-rule="nonzero" clip-path="url(#f103787280)"><g clip-rule="nonzero" clip-path="url(#6be8c95e54)"><path style=" stroke:none;fill-rule:nonzero;fill:#38b6ff;fill-opacity:1;" d="M 1147.730469 1021.546875 C 1147.371094 1022.835938 1147.425781 1023.890625 1146.835938 1024.769531 C 1148.949219 1024.660156 1150.648438 1024.78125 1152.351562 1024.90625 C 1152.816406 1025.730469 1152.871094 1026.785156 1153.335938 1027.609375 C 1155.503906 1028.554688 1158.152344 1026.511719 1159.960938 1028.746094 C 1160.425781 1029.570312 1160.480469 1030.625 1160.535156 1031.683594 C 1163.238281 1030.695312 1165.101562 1033.988281 1167.859375 1034.058594 C 1171.027344 1033.894531 1172.246094 1037.007812 1175.058594 1038.132812 C 1175.882812 1037.664062 1176.9375 1037.609375 1178.40625 1037.324219 C 1178.515625 1039.433594 1179.804688 1039.792969 1181.738281 1040.328125 C 1183.261719 1041.09375 1184.371094 1042.097656 1185.480469 1043.097656 C 1187.074219 1041.109375 1188.292969 1044.222656 1189.9375 1043.289062 C 1189.582031 1044.578125 1189.402344 1045.222656 1189.457031 1046.28125 C 1192.269531 1047.40625 1195.492188 1048.296875 1198.535156 1049.832031 C 1201.347656 1050.957031 1201.167969 1051.605469 1200.867188 1053.949219 C 1202.210938 1055.363281 1203.320312 1056.363281 1204.433594 1057.363281 C 1204.664062 1057.777344 1205.308594 1057.953125 1205.953125 1058.132812 C 1208.765625 1059.257812 1208.175781 1060.136719 1209.339844 1062.191406 C 1210.507812 1064.25 1209.273438 1064.949219 1209.148438 1066.648438 C 1208.558594 1067.527344 1208.199219 1068.816406 1208.488281 1070.285156 C 1208.542969 1071.339844 1207.542969 1072.449219 1207.183594 1073.738281 C 1206.828125 1075.027344 1206.238281 1075.90625 1205.46875 1077.429688 C 1204.648438 1077.894531 1202.769531 1078.414062 1201.765625 1079.527344 C 1200.765625 1080.636719 1199.296875 1080.925781 1197.597656 1080.800781 C 1196.542969 1080.855469 1195.308594 1081.554688 1194.074219 1082.253906 C 1193.605469 1081.429688 1193.550781 1080.375 1193.320312 1079.964844 C 1190.796875 1080.304688 1188.164062 1078.535156 1185.226562 1079.113281 C 1183.117188 1079.222656 1181.773438 1077.808594 1182.128906 1076.519531 C 1181.074219 1076.574219 1180.429688 1076.394531 1179.371094 1076.449219 C 1178.726562 1076.269531 1178.496094 1075.859375 1178.496094 1075.859375 C 1176.671875 1077.4375 1175.09375 1075.613281 1174.394531 1074.378906 C 1172.816406 1072.554688 1171.761719 1072.609375 1169.882812 1073.128906 C 1168.074219 1070.894531 1166.085938 1069.300781 1163.148438 1069.878906 C 1161.683594 1070.164062 1160.804688 1069.574219 1158.527344 1066.515625 C 1158.117188 1066.75 1157.707031 1066.984375 1156.648438 1067.039062 C 1156.238281 1067.269531 1155.414062 1067.738281 1155.414062 1067.738281 C 1153.894531 1066.96875 1152.78125 1065.96875 1151.90625 1065.378906 C 1150.792969 1064.375 1150.09375 1063.140625 1149.21875 1062.550781 C 1148.105469 1061.550781 1146.996094 1060.550781 1145.117188 1061.070312 C 1140.535156 1062.578125 1139.660156 1061.988281 1137.507812 1057.226562 C 1136.683594 1057.695312 1135.859375 1058.160156 1134.804688 1058.214844 C 1134.160156 1058.035156 1133.28125 1057.445312 1132.226562 1057.5 C 1132.402344 1056.855469 1132.582031 1056.210938 1132.941406 1054.921875 C 1129.25 1053.207031 1125.382812 1052.136719 1120.335938 1052.824219 C 1120.28125 1051.765625 1119.992188 1050.300781 1119.707031 1048.832031 C 1117.128906 1048.117188 1114.550781 1047.40625 1111.738281 1046.28125 C 1110.449219 1045.921875 1109.515625 1044.277344 1108.40625 1043.277344 C 1106.707031 1043.152344 1105.238281 1043.441406 1103.539062 1043.316406 C 1103.894531 1042.027344 1104.25 1040.738281 1105.019531 1039.214844 C 1101.496094 1040.667969 1099.738281 1039.488281 1097.929688 1037.253906 C 1097.695312 1036.839844 1097.230469 1036.019531 1096.820312 1036.25 C 1093.007812 1036.238281 1090.085938 1033 1086.273438 1032.984375 C 1085.863281 1033.21875 1085.21875 1033.039062 1084.984375 1032.628906 C 1083.875 1031.628906 1083.585938 1030.160156 1082.296875 1029.804688 C 1081.007812 1029.445312 1079.539062 1029.734375 1078.839844 1028.5 C 1078.375 1027.675781 1078.140625 1027.265625 1077.675781 1026.441406 C 1073.628906 1026.015625 1073.628906 1026.015625 1073.054688 1023.082031 C 1071.175781 1023.601562 1069.0625 1023.710938 1066.953125 1023.820312 C 1066.898438 1022.765625 1067.074219 1022.121094 1067.253906 1021.476562 C 1065.964844 1021.121094 1064.265625 1020.996094 1063.152344 1019.996094 C 1061.398438 1018.816406 1059.230469 1017.867188 1057.886719 1016.453125 C 1054.324219 1013.039062 1049.988281 1011.144531 1045.300781 1010.542969 C 1045.476562 1009.898438 1045.246094 1009.484375 1045.191406 1008.429688 C 1039.210938 1007.46875 1035.179688 1003.230469 1029.96875 1000.746094 C 1029.96875 1000.746094 1030.148438 1000.101562 1030.148438 1000.101562 C 1031.203125 1000.046875 1032.082031 1000.636719 1033.136719 1000.582031 C 1031.917969 997.46875 1027.871094 997.042969 1026.238281 994.164062 C 1024.839844 991.695312 1022.386719 989.28125 1019.933594 986.867188 C 1021.398438 986.578125 1022.867188 986.289062 1024.335938 986.003906 C 1023.457031 985.414062 1023.222656 985 1022.113281 984 C 1025.226562 982.78125 1027.695312 981.382812 1030.628906 980.804688 C 1033.976562 979.996094 1037.789062 980.011719 1040.957031 979.847656 C 1041.367188 979.617188 1041.835938 980.4375 1042.066406 980.851562 C 1042.710938 981.027344 1043.824219 982.03125 1044.648438 981.5625 C 1050.285156 980 1054.90625 983.363281 1059.828125 984.378906 C 1062.816406 984.859375 1065.039062 986.859375 1067.972656 986.285156 C 1068.796875 985.820312 1070.140625 987.230469 1070.605469 988.054688 C 1071.539062 989.699219 1073.0625 990.46875 1074.761719 990.59375 C 1076.460938 990.714844 1078.574219 990.605469 1080.097656 991.375 C 1083.964844 992.445312 1087.242188 994.394531 1091.339844 995.875 C 1091.863281 997.753906 1093.972656 997.644531 1095.085938 998.648438 C 1097.484375 1000.003906 1100.296875 1001.128906 1102.875 1001.84375 C 1104.738281 1005.136719 1108.496094 1004.09375 1111.539062 1005.628906 C 1113.296875 1006.808594 1115.230469 1007.34375 1117.394531 1008.292969 C 1118.039062 1008.46875 1118.972656 1010.117188 1120.082031 1011.117188 C 1121.785156 1011.242188 1124.128906 1011.542969 1124.882812 1013.835938 C 1128.050781 1013.671875 1129.792969 1018.664062 1133.726562 1016.976562 C 1136.128906 1018.335938 1139.296875 1018.171875 1141.570312 1021.230469 C 1142.214844 1021.40625 1144.617188 1022.765625 1147.730469 1021.546875 Z M 1147.730469 1021.546875 "/></g></g></g><g clip-rule="nonzero" clip-path="url(#0a800d0010)"><g clip-rule="nonzero" clip-path="url(#afba24b0a8)"><g clip-rule="nonzero" clip-path="url(#bdace921fc)"><path style=" stroke:none;fill-rule:nonzero;fill:#38b6ff;fill-opacity:1;" d="M 1107.660156 1225.222656 C 1106.480469 1226.980469 1105.480469 1228.089844 1104.710938 1229.613281 C 1103.1875 1228.84375 1102.3125 1228.253906 1100.789062 1227.484375 C 1100.84375 1228.539062 1100.898438 1229.597656 1101.1875 1231.0625 C 1099.898438 1230.707031 1099.253906 1230.527344 1098.609375 1230.351562 C 1098.484375 1232.050781 1098.59375 1234.164062 1098.46875 1235.863281 C 1097.179688 1235.507812 1095.660156 1234.738281 1094.371094 1234.382812 C 1094.425781 1235.4375 1094.710938 1236.90625 1095 1238.371094 C 1091.542969 1237.070312 1087.675781 1236 1084.222656 1234.695312 C 1084.507812 1236.164062 1084.5625 1237.21875 1084.617188 1238.273438 C 1083.507812 1237.273438 1082.21875 1236.917969 1081.339844 1236.328125 C 1080.695312 1236.148438 1080.050781 1235.96875 1078.53125 1235.203125 C 1078.707031 1234.558594 1078.242188 1233.734375 1078.1875 1232.679688 C 1074.25 1234.363281 1073.265625 1231.664062 1071.632812 1228.78125 C 1070.933594 1227.546875 1069.824219 1226.546875 1068.945312 1225.957031 C 1064.144531 1223.242188 1064.144531 1223.242188 1065.160156 1218.316406 C 1065.160156 1218.316406 1064.929688 1217.90625 1064.695312 1217.496094 C 1063.871094 1217.960938 1063.28125 1218.839844 1062.460938 1219.304688 C 1062.460938 1219.304688 1062.046875 1219.539062 1062.046875 1219.539062 C 1059.59375 1217.125 1057.371094 1215.121094 1055.328125 1212.472656 C 1054.863281 1211.648438 1054.574219 1210.183594 1053.875 1208.949219 C 1053.054688 1209.414062 1051.996094 1209.46875 1051.585938 1209.703125 C 1051.351562 1209.289062 1050.941406 1209.523438 1051.121094 1208.878906 C 1051.011719 1206.765625 1049.667969 1205.355469 1047.5 1204.40625 C 1045.332031 1203.460938 1045.867188 1201.527344 1044.9375 1199.882812 C 1040.890625 1199.457031 1040.890625 1199.457031 1042.425781 1196.410156 C 1039.792969 1194.640625 1042.359375 1199.167969 1039.726562 1197.398438 C 1039.492188 1196.988281 1038.613281 1196.398438 1038.792969 1195.753906 C 1039.328125 1193.820312 1037.574219 1192.640625 1036.460938 1191.636719 C 1034.472656 1190.046875 1034.132812 1187.523438 1032.375 1186.34375 C 1031.265625 1185.34375 1030.386719 1184.753906 1029.152344 1185.453125 C 1028.742188 1185.683594 1028.097656 1185.503906 1027.6875 1185.738281 C 1027.632812 1184.683594 1027.398438 1184.269531 1027.578125 1183.625 C 1027.414062 1180.457031 1026.246094 1178.402344 1023.203125 1176.863281 C 1021.449219 1175.683594 1019.460938 1174.09375 1018.527344 1172.449219 C 1018.007812 1170.570312 1016.484375 1169.800781 1014.730469 1168.621094 C 1014.90625 1167.976562 1015.085938 1167.332031 1015.675781 1166.453125 C 1012.917969 1166.386719 1013.8125 1163.164062 1011.644531 1162.214844 C 1010.835938 1158.871094 1005.914062 1157.855469 1005.925781 1154.042969 C 1003.992188 1153.507812 1003.9375 1152.449219 1003.417969 1150.570312 C 1003.128906 1149.105469 1002.199219 1147.457031 1001.320312 1146.867188 C 998.042969 1144.917969 997.359375 1139.871094 992.847656 1138.625 C 993.203125 1137.335938 994.382812 1135.578125 991.804688 1134.867188 C 989.226562 1134.152344 987.828125 1131.683594 986.894531 1130.039062 C 985.03125 1126.746094 982.988281 1124.097656 980.710938 1121.039062 C 980.246094 1120.21875 980.371094 1118.515625 979.082031 1118.160156 C 979.902344 1117.695312 980.082031 1117.050781 980.492188 1116.816406 C 978.738281 1115.636719 976.984375 1114.457031 974.582031 1113.097656 C 974.996094 1112.863281 974.761719 1112.453125 974.941406 1111.808594 C 973.363281 1109.984375 971.785156 1108.160156 970.210938 1106.335938 C 969.976562 1105.925781 969.742188 1105.511719 969.921875 1104.867188 C 970.457031 1102.933594 969.578125 1102.34375 967.699219 1102.867188 C 967.878906 1102.222656 968.289062 1101.988281 968.878906 1101.109375 C 967.125 1099.929688 965.960938 1097.875 965.207031 1095.582031 C 964.039062 1093.527344 962.464844 1091.703125 960.886719 1089.878906 C 957.964844 1086.640625 953.59375 1079.878906 951.851562 1074.886719 C 953.839844 1076.476562 955.597656 1077.65625 957.585938 1079.25 C 957.996094 1079.015625 957.996094 1079.015625 958.40625 1078.78125 C 957.476562 1077.136719 956.777344 1075.902344 954.964844 1073.667969 C 957.777344 1074.792969 959.300781 1075.558594 961.464844 1076.507812 C 965.15625 1078.222656 968.074219 1081.457031 972.355469 1082.296875 C 974.289062 1082.832031 975.863281 1084.65625 977.207031 1086.066406 C 978.320312 1087.070312 979.839844 1087.835938 980.539062 1089.070312 C 981.472656 1090.71875 982.527344 1090.664062 984.050781 1091.429688 C 984.695312 1091.609375 984.75 1092.664062 985.214844 1093.488281 C 985.449219 1093.898438 986.503906 1093.84375 987.148438 1094.023438 C 988.261719 1095.023438 987.726562 1096.957031 989.835938 1096.847656 C 991.757812 1101.199219 996.679688 1102.214844 999.421875 1106.09375 C 1001.464844 1108.742188 1004.097656 1110.511719 1006.140625 1113.160156 C 1006.605469 1113.980469 1007.894531 1114.339844 1009.652344 1115.519531 C 1009.652344 1115.519531 1009.707031 1116.574219 1009.707031 1116.574219 C 1011.28125 1118.398438 1012.625 1119.8125 1014.382812 1120.992188 C 1015.257812 1121.582031 1016.546875 1121.9375 1017.425781 1122.527344 C 1017.769531 1125.050781 1019.523438 1126.230469 1022.28125 1126.300781 C 1022.335938 1127.355469 1022.566406 1127.769531 1022.390625 1128.414062 C 1023.445312 1128.359375 1024.089844 1128.535156 1024.5 1128.304688 C 1024.96875 1129.125 1025.667969 1130.359375 1026.132812 1131.183594 C 1026.832031 1132.417969 1027.941406 1133.417969 1028.640625 1134.652344 C 1029.339844 1135.886719 1030.453125 1136.890625 1031.5625 1137.890625 C 1033.085938 1138.660156 1034.25 1140.714844 1035.59375 1142.128906 C 1036.292969 1143.363281 1036.992188 1144.597656 1038.046875 1144.542969 C 1039.980469 1145.078125 1041.324219 1146.492188 1041.847656 1148.371094 C 1042.078125 1148.78125 1042.3125 1149.191406 1042.957031 1149.371094 C 1045.535156 1150.085938 1047.289062 1151.265625 1048.867188 1153.089844 C 1049.566406 1154.324219 1051.320312 1155.503906 1052.019531 1156.738281 C 1052.253906 1157.148438 1052.71875 1157.972656 1053.363281 1158.152344 C 1057.699219 1160.042969 1060.207031 1163.515625 1063.539062 1166.519531 C 1065.761719 1168.519531 1067.980469 1170.523438 1069.792969 1172.757812 C 1072.945312 1176.40625 1071.082031 1173.117188 1074 1176.351562 C 1074.234375 1176.765625 1074.46875 1177.175781 1074.46875 1177.175781 C 1077.511719 1178.710938 1078.5 1181.414062 1079.71875 1184.527344 C 1080.183594 1185.351562 1081.296875 1186.351562 1081.941406 1186.53125 C 1083.875 1187.066406 1085.21875 1188.480469 1086.148438 1190.125 C 1087.082031 1191.769531 1087.78125 1193.003906 1090.125 1193.308594 C 1090.769531 1193.484375 1091.46875 1194.71875 1091.9375 1195.542969 C 1092.457031 1197.421875 1093.800781 1198.835938 1095.734375 1199.371094 C 1097.257812 1200.136719 1098.777344 1200.90625 1098.65625 1202.605469 C 1098.710938 1203.664062 1101.054688 1203.964844 1100.285156 1205.488281 C 1100.285156 1205.488281 1102.042969 1206.667969 1102.6875 1206.84375 C 1103.027344 1209.367188 1102.3125 1211.945312 1104.535156 1213.949219 C 1104.769531 1214.359375 1105.234375 1215.183594 1104.824219 1215.417969 C 1102.230469 1218.515625 1104.039062 1220.75 1104.148438 1222.863281 C 1104.4375 1224.332031 1105.546875 1225.332031 1107.660156 1225.222656 Z M 1107.660156 1225.222656 "/></g></g></g><g clip-rule="nonzero" clip-path="url(#9dd0bffb79)"><g clip-rule="nonzero" clip-path="url(#e35f8c21fd)"><g clip-rule="nonzero" clip-path="url(#a9b6035702)"><path style=" stroke:none;fill-rule:nonzero;fill:#38b6ff;fill-opacity:1;" d="M 748.964844 1136 C 750.898438 1136.535156 751.777344 1137.125 753.476562 1137.25 C 754.464844 1139.953125 755.273438 1143.296875 756.726562 1146.824219 C 758.054688 1152.046875 758.972656 1157.507812 760.300781 1162.730469 C 760.535156 1163.144531 760.589844 1164.199219 760.410156 1164.84375 C 759.699219 1167.421875 760.039062 1169.945312 760.617188 1172.882812 C 761.136719 1174.761719 762.070312 1176.40625 760.890625 1178.160156 C 760.300781 1179.039062 760.765625 1179.863281 760.820312 1180.917969 C 760.640625 1181.5625 761.109375 1182.386719 760.929688 1183.03125 C 759.804688 1185.839844 760.792969 1188.542969 761.957031 1190.601562 C 762.890625 1192.246094 761.652344 1192.945312 761.707031 1194 C 761.996094 1195.46875 763.574219 1197.292969 761.515625 1198.457031 C 763.039062 1199.226562 762.035156 1200.335938 762.089844 1201.394531 C 762.144531 1202.449219 762.023438 1204.148438 761.488281 1206.082031 C 762.472656 1208.785156 762.226562 1212.1875 761.566406 1215.820312 C 763.324219 1217 764.253906 1218.644531 762.84375 1219.988281 C 761.429688 1221.332031 761.484375 1222.390625 762.183594 1223.625 C 762.417969 1224.035156 762.238281 1224.679688 762.472656 1225.089844 C 760.648438 1226.667969 762.167969 1227.4375 763.28125 1228.4375 C 762.101562 1230.191406 760.277344 1231.769531 761.675781 1234.238281 C 762.140625 1235.0625 761.371094 1236.585938 761.015625 1237.875 C 760.246094 1239.394531 763.828125 1239 761.769531 1240.164062 C 764.167969 1241.523438 762.34375 1243.097656 761.578125 1244.621094 C 761.164062 1244.855469 761.398438 1245.265625 760.988281 1245.5 C 761.632812 1245.675781 761.863281 1246.089844 762.507812 1246.265625 C 762.332031 1246.910156 761.917969 1247.144531 761.742188 1247.789062 C 763.441406 1247.914062 762.671875 1249.433594 762.671875 1249.433594 C 760.667969 1251.65625 762.300781 1254.535156 761.355469 1256.703125 C 760.230469 1259.515625 760.984375 1261.804688 761.324219 1264.328125 C 761.433594 1266.441406 760.253906 1268.195312 762.242188 1269.785156 C 762.476562 1270.199219 762.121094 1271.488281 761.941406 1272.132812 C 759.992188 1275.410156 761.679688 1279.34375 761.433594 1282.746094 C 761.488281 1283.800781 761.773438 1285.269531 761.597656 1285.914062 C 760.648438 1288.082031 760.347656 1290.425781 758.988281 1292.824219 C 757.453125 1295.871094 757.5625 1297.980469 758.550781 1300.683594 C 758.78125 1301.097656 759.015625 1301.507812 758.835938 1302.152344 C 756.011719 1304.839844 756.066406 1305.894531 757.875 1308.132812 C 757.160156 1310.710938 754.515625 1312.753906 756.558594 1315.398438 C 755.554688 1316.511719 754.964844 1317.386719 754.375 1318.265625 C 753.085938 1317.910156 751.796875 1317.550781 750.332031 1317.839844 C 749.742188 1318.71875 749.5625 1319.363281 748.738281 1319.828125 C 747.917969 1320.292969 746.859375 1320.347656 746.039062 1320.816406 C 745.804688 1320.402344 745.339844 1319.582031 744.871094 1318.757812 C 744.105469 1320.28125 743.101562 1321.390625 742.335938 1322.914062 C 741.046875 1322.554688 740.167969 1321.964844 738.644531 1321.195312 C 738.289062 1322.484375 738.109375 1323.128906 737.933594 1323.773438 C 735.820312 1323.882812 735.945312 1322.183594 735.65625 1320.714844 C 733.542969 1320.824219 731.84375 1320.703125 731.914062 1317.945312 C 731.679688 1317.535156 731.214844 1316.710938 731.214844 1316.710938 C 727.402344 1316.695312 727.828125 1312.652344 725.839844 1311.058594 C 725.195312 1310.882812 725.316406 1309.179688 725.496094 1308.535156 C 725.511719 1304.722656 724.703125 1301.378906 723.894531 1298.03125 C 723.605469 1296.5625 723.316406 1295.097656 724.085938 1293.574219 C 725.800781 1289.886719 723.058594 1286.003906 724.128906 1282.136719 C 725.019531 1278.914062 723.980469 1275.15625 724.226562 1271.753906 C 724.296875 1268.996094 725.011719 1266.417969 725.078125 1263.664062 C 725.09375 1259.851562 727.042969 1256.574219 726 1252.816406 C 725.765625 1252.402344 726.355469 1251.527344 726.535156 1250.882812 C 726.660156 1249.179688 727.605469 1247.015625 725.851562 1245.835938 C 724.738281 1244.832031 724.683594 1243.777344 725.863281 1242.023438 C 727.222656 1239.621094 728.167969 1237.457031 728.238281 1234.699219 C 728.363281 1233 728.074219 1231.53125 727.785156 1230.0625 C 727.800781 1226.25 728.28125 1223.261719 730.121094 1217.871094 C 731.066406 1215.707031 730.726562 1213.183594 731.027344 1210.835938 C 730.972656 1209.78125 731.328125 1208.492188 731.6875 1207.203125 C 729.054688 1205.433594 731 1202.15625 730.660156 1199.632812 C 730.90625 1196.230469 732.855469 1192.953125 732.222656 1188.960938 C 731.992188 1188.550781 732.8125 1188.085938 732.992188 1187.441406 C 733.171875 1186.796875 733.582031 1186.5625 733.347656 1186.152344 C 732.84375 1180.460938 732.609375 1180.046875 733.734375 1177.238281 C 735.683594 1173.960938 735.695312 1170.148438 736.355469 1166.511719 C 736.535156 1165.867188 736.535156 1165.867188 736.300781 1165.457031 C 738.496094 1158.777344 738.757812 1151.566406 742.886719 1145.421875 C 745.480469 1142.324219 747.015625 1139.277344 748.964844 1136 Z M 748.964844 1136 "/></g></g></g><g clip-rule="nonzero" clip-path="url(#508e3f52c5)"><g clip-rule="nonzero" clip-path="url(#e853d01684)"><g clip-rule="nonzero" clip-path="url(#dfd405cb0d)"><path style=" stroke:none;fill-rule:nonzero;fill:#38b6ff;fill-opacity:1;" d="M 1042.316406 899.730469 C 1042.441406 898.027344 1042.796875 896.738281 1043.332031 894.804688 C 1046.035156 893.820312 1049.324219 891.953125 1052.4375 890.734375 C 1057.199219 888.582031 1062.65625 887.664062 1067.828125 885.28125 C 1068.238281 885.046875 1069.296875 884.992188 1069.941406 885.171875 C 1072.929688 885.652344 1075.21875 884.898438 1077.921875 883.910156 C 1079.800781 883.390625 1081.214844 882.046875 1083.378906 882.992188 C 1084.023438 883.171875 1085.492188 882.882812 1086.546875 882.828125 C 1087.191406 883.007812 1088.195312 881.894531 1088.425781 882.308594 C 1091.648438 883.199219 1093.707031 882.035156 1095.941406 880.222656 C 1097.355469 878.878906 1098.289062 880.527344 1099.109375 880.058594 C 1100.578125 879.773438 1101.757812 878.015625 1103.746094 879.609375 C 1104.515625 878.085938 1105.390625 878.675781 1106.449219 878.621094 C 1107.914062 878.332031 1109.203125 878.691406 1111.316406 878.582031 C 1113.785156 877.183594 1117.597656 877.195312 1121 877.445312 C 1121.945312 875.277344 1123.179688 874.578125 1125.167969 876.167969 C 1126.28125 877.171875 1127.335938 877.117188 1128.570312 876.417969 C 1128.980469 876.183594 1129.804688 875.71875 1130.039062 876.128906 C 1132.027344 877.722656 1132.382812 876.433594 1133.152344 874.910156 C 1135.085938 875.445312 1136.894531 877.679688 1139.128906 875.871094 C 1139.953125 875.40625 1141.652344 875.527344 1142.53125 876.117188 C 1143.820312 876.476562 1143.246094 873.539062 1144.589844 874.953125 C 1145.945312 872.554688 1147.289062 873.964844 1149.222656 874.5 C 1149.457031 874.914062 1149.867188 874.679688 1150.511719 874.859375 C 1150.691406 874.214844 1150.871094 873.570312 1150.871094 873.570312 C 1151.515625 873.746094 1152.160156 873.925781 1152.390625 874.335938 C 1152.105469 872.871094 1154.039062 873.40625 1154.039062 873.40625 C 1156.4375 874.761719 1158.90625 873.363281 1161.25 873.667969 C 1163.828125 874.378906 1166.53125 873.394531 1169.054688 873.050781 C 1170.933594 872.53125 1173.101562 873.476562 1174.691406 871.488281 C 1175.101562 871.253906 1176.160156 871.199219 1177.035156 871.789062 C 1180.726562 873.503906 1184.195312 870.996094 1187.363281 870.832031 C 1188.007812 871.011719 1189.242188 870.3125 1190.121094 870.902344 C 1192.289062 871.847656 1195.042969 871.917969 1196.976562 872.453125 C 1199.789062 873.578125 1202.3125 873.234375 1204.78125 871.835938 C 1205.191406 871.605469 1205.605469 871.371094 1206.015625 871.136719 C 1208.882812 873.320312 1210.171875 873.675781 1212.171875 871.453125 C 1214.519531 871.757812 1216.972656 874.171875 1219.386719 871.714844 C 1220.730469 873.128906 1222.019531 873.484375 1222.898438 874.074219 C 1222.953125 875.132812 1222.828125 876.832031 1222.472656 878.121094 C 1223.347656 878.710938 1224.40625 878.65625 1224.871094 879.480469 C 1225.335938 880.300781 1225.804688 881.125 1225.859375 882.179688 C 1225.445312 882.414062 1224.625 882.878906 1224.445312 883.523438 C 1225.96875 884.292969 1227.488281 885.0625 1228.777344 885.417969 C 1228.421875 886.707031 1228.066406 887.996094 1227.296875 889.519531 C 1228.351562 889.464844 1228.996094 889.644531 1230.054688 889.589844 C 1230.394531 892.113281 1228.929688 892.398438 1227.640625 892.042969 C 1227.75 894.15625 1227.859375 896.265625 1225.101562 896.199219 C 1224.691406 896.429688 1223.867188 896.898438 1224.101562 897.308594 C 1224.496094 900.886719 1220.273438 901.105469 1218.914062 903.507812 C 1218.738281 904.152344 1217.269531 904.4375 1216.625 904.261719 C 1213.042969 904.65625 1209.699219 905.464844 1206.171875 906.917969 C 1204.9375 907.617188 1203.238281 907.492188 1201.949219 907.136719 C 1198.082031 906.066406 1194.84375 908.988281 1190.566406 908.148438 C 1187.578125 907.667969 1184.050781 909.121094 1180.472656 909.519531 C 1177.949219 909.863281 1175.371094 909.148438 1172.203125 909.3125 C 1168.625 909.710938 1164.933594 907.996094 1161.410156 909.449219 C 1161 909.679688 1160.121094 909.089844 1159.066406 909.144531 C 1157.597656 909.433594 1155.429688 908.488281 1153.839844 910.476562 C 1152.835938 911.585938 1151.78125 911.640625 1149.847656 911.105469 C 1147.679688 910.15625 1144.871094 909.03125 1142.347656 909.375 C 1140.878906 909.664062 1139.410156 909.949219 1137.710938 909.828125 C 1133.71875 910.457031 1130.730469 909.976562 1125.164062 908.78125 C 1122.816406 908.480469 1120.292969 908.824219 1117.949219 908.519531 C 1116.894531 908.574219 1115.605469 908.21875 1114.316406 907.863281 C 1112.546875 910.496094 1109.734375 909.371094 1106.976562 909.300781 C 1103.398438 909.699219 1100.121094 907.75 1096.363281 908.789062 C 1095.953125 909.023438 1095.074219 908.433594 1094.839844 908.023438 C 1094.195312 907.84375 1093.964844 907.433594 1093.550781 907.664062 C 1088.324219 908.996094 1087.914062 909.226562 1084.691406 908.335938 C 1081.234375 907.03125 1077.65625 907.429688 1073.609375 907.003906 C 1073.199219 907.238281 1072.964844 906.824219 1072.554688 907.058594 C 1065.699219 905.507812 1058.539062 906.300781 1051.804688 903.050781 C 1049.226562 902.335938 1045.773438 901.03125 1042.316406 899.730469 Z M 1042.316406 899.730469 "/></g></g></g><g clip-rule="nonzero" clip-path="url(#77695e04fa)"><g clip-rule="nonzero" clip-path="url(#bc5d48f56b)"><g clip-rule="nonzero" clip-path="url(#0216b67d52)"><path style=" stroke:none;fill-rule:nonzero;fill:#38b6ff;fill-opacity:1;" d="M 652.433594 1116.222656 C 651.898438 1118.15625 650.71875 1119.910156 652.0625 1121.324219 C 652.472656 1121.089844 653.296875 1120.625 653.707031 1120.390625 C 653.707031 1120.390625 653.941406 1120.800781 653.941406 1120.800781 C 653.035156 1127.835938 650.839844 1134.515625 648.234375 1141.425781 C 647.109375 1144.238281 646.214844 1147.460938 644.679688 1150.503906 C 642.964844 1154.195312 641.015625 1157.472656 638.890625 1161.394531 C 638.121094 1162.914062 637.351562 1164.4375 636.585938 1165.960938 C 636.226562 1167.25 635.460938 1168.769531 635.101562 1170.058594 C 633.332031 1172.691406 630.917969 1175.148438 629.382812 1178.191406 C 627.847656 1181.234375 626.953125 1184.457031 625.828125 1187.269531 C 625.472656 1188.558594 624.703125 1190.082031 623.703125 1191.191406 C 621.753906 1194.46875 619.160156 1197.570312 617.214844 1200.847656 C 615.675781 1203.890625 614.140625 1206.933594 612.605469 1209.980469 C 611.65625 1212.144531 610.476562 1213.902344 609.296875 1215.65625 C 608.53125 1217.179688 606.882812 1218.109375 606.992188 1220.222656 C 606.992188 1220.222656 606.816406 1220.867188 606.816406 1220.867188 C 602.753906 1224.253906 601.273438 1228.355469 599.613281 1233.097656 C 599.433594 1233.742188 598.609375 1234.210938 597.789062 1234.675781 C 597.199219 1235.554688 595.550781 1236.484375 595.375 1237.128906 C 594.949219 1241.175781 592.535156 1243.628906 590.121094 1246.085938 C 588.707031 1247.429688 587.9375 1248.949219 586.757812 1250.707031 C 585.8125 1252.871094 584.632812 1254.628906 582.574219 1255.792969 C 581.339844 1256.492188 580.160156 1258.246094 580.039062 1259.949219 C 579.019531 1264.871094 574.726562 1267.847656 571.3125 1271.410156 C 569.308594 1273.632812 565.910156 1273.386719 564.496094 1274.730469 C 561.738281 1274.660156 559.628906 1274.769531 557.515625 1274.878906 C 555.402344 1274.988281 554.703125 1273.753906 554.003906 1272.519531 C 552.839844 1270.460938 551.496094 1269.046875 549.152344 1268.746094 C 548.863281 1267.277344 548.164062 1266.042969 548.109375 1264.988281 C 547.589844 1263.109375 547.300781 1261.640625 547.835938 1259.707031 C 548.191406 1258.417969 548.550781 1257.128906 548.261719 1255.664062 C 548.5625 1253.316406 548.453125 1251.207031 551.15625 1250.21875 C 551.15625 1250.21875 551.566406 1249.984375 551.566406 1249.984375 C 551.9375 1244.882812 556.878906 1242.085938 558.769531 1237.753906 C 559.894531 1234.941406 561.898438 1232.722656 561.324219 1229.785156 C 562.734375 1228.441406 563.914062 1226.6875 565.328125 1225.34375 C 568.566406 1222.421875 571.390625 1219.734375 572.226562 1215.457031 C 572.40625 1214.8125 573.40625 1213.703125 574.230469 1213.234375 C 575.644531 1211.890625 577.933594 1211.136719 578.234375 1208.792969 C 581.351562 1207.574219 581.363281 1203.761719 584.246094 1202.128906 C 586.300781 1200.964844 587.25 1198.796875 587.550781 1196.453125 C 587.90625 1195.164062 588.675781 1193.640625 590.144531 1193.351562 C 592.613281 1191.953125 594.613281 1189.734375 595.738281 1186.921875 C 596.507812 1185.398438 598.332031 1183.824219 599.101562 1182.300781 C 601.226562 1178.378906 604.875 1175.226562 607.878906 1171.894531 C 609.058594 1170.136719 610.238281 1168.382812 611.832031 1166.394531 C 613.011719 1164.640625 614.421875 1163.296875 615.601562 1161.539062 C 616.191406 1160.664062 617.015625 1160.195312 617.605469 1159.320312 C 621.089844 1152.996094 626.742188 1147.621094 630.226562 1141.300781 C 632.351562 1137.378906 635.589844 1134.457031 637.949219 1130.949219 C 640.898438 1126.558594 645.835938 1123.761719 648.785156 1119.375 C 649.140625 1118.085938 650.789062 1117.152344 652.433594 1116.222656 Z M 652.433594 1116.222656 "/></g></g></g><g clip-rule="nonzero" clip-path="url(#e717e26a04)"><g clip-rule="nonzero" clip-path="url(#eaed7a4843)"><g clip-rule="nonzero" clip-path="url(#3a9e74ab40)"><path style=" stroke:none;fill-rule:nonzero;fill:#004aad;fill-opacity:1;" d="M -314.949219 279.324219 L 781.933594 -351.335938 L 1332.953125 607.035156 L 236.066406 1237.695312 Z M -314.949219 279.324219 "/></g></g></g></g></svg>